<svg xmlns="http://www.w3.org/2000/svg" width="148.283" height="62" viewBox="0 0 148.283 62"><defs><style>.a{fill:#68a8dc;}.b{fill:#116eb7;}</style></defs><g transform="translate(-64 -13)"><g transform="translate(64 13)"><path d="M217.83,25.5a28.534,28.534,0,0,1,6.321.589,14.171,14.171,0,0,1,4.508,1.857,11.115,11.115,0,0,1,3.182,3.025,12.489,12.489,0,0,1,1.8,4.077,21.372,21.372,0,0,1,.589,5.245,22.456,22.456,0,0,1-.826,6.343,13.322,13.322,0,0,1-2.481,4.8,12,12,0,0,1-3.613,2.944,15.978,15.978,0,0,1-4.927,1.632,37.22,37.22,0,0,1-6.049.407H206.051V54.925a6.446,6.446,0,0,0,1.324-.488,1.669,1.669,0,0,0,.725-.725,3.249,3.249,0,0,0,.307-1.177q.068-.715.067-1.8V31.206q0-1.065-.056-1.789a3.058,3.058,0,0,0-.3-1.177,1.838,1.838,0,0,0-.725-.736,5.533,5.533,0,0,0-1.347-.509V25.5ZM215.5,53.678a17.629,17.629,0,0,0,2.061.068,10.706,10.706,0,0,0,4.192-.725,6.257,6.257,0,0,0,2.152-1.5,10.006,10.006,0,0,0,2.22-4.055,23.353,23.353,0,0,0,.815-6.637,19.107,19.107,0,0,0-1.156-7.147,8.652,8.652,0,0,0-3.251-4.191,9.074,9.074,0,0,0-5.017-1.348q-1.4,0-2.016.046Z" transform="translate(-206.051 -12.876)"/><path d="M231.706,55.049a3.1,3.1,0,0,0,1.53-.771,2.613,2.613,0,0,0,.565-1.291,19.549,19.549,0,0,0,.148-2.968V39.486a12.464,12.464,0,0,0-.1-1.789,2.557,2.557,0,0,0-.384-1.087,1.8,1.8,0,0,0-.772-.623,6.321,6.321,0,0,0-1.256-.374v-1.54l6.229-.181H240.5V50q0,1.27.034,1.959a8.755,8.755,0,0,0,.1,1.066,3.166,3.166,0,0,0,.193.668,2.206,2.206,0,0,0,.328.544,1.9,1.9,0,0,0,.589.454,4.66,4.66,0,0,0,1.019.362v1.494H231.706Zm8.609-30.016v5.551h-6.207V25.033Z" transform="translate(-199.267 -13)"/><path d="M265.324,35.278l-3.874-.431-.09.25a4.89,4.89,0,0,1,1.053,1.732,7.435,7.435,0,0,1,.418,2.64,7.422,7.422,0,0,1-2.39,5.98q-2.389,2.04-7.033,2.039a13.659,13.659,0,0,1-3.67-.408,2.954,2.954,0,0,0-1.133,2.2,1.658,1.658,0,0,0,.284,1.042,1.812,1.812,0,0,0,.963.556,7.455,7.455,0,0,0,1.925.191h5.618a9.105,9.105,0,0,1,5.665,1.473,5.457,5.457,0,0,1,1.879,4.576,6.541,6.541,0,0,1-1.37,4.168,8.481,8.481,0,0,1-3.931,2.663,18.013,18.013,0,0,1-6.071.918,43.323,43.323,0,0,1-4.645-.227,13.248,13.248,0,0,1-3.556-.828,5.351,5.351,0,0,1-2.277-1.641,4.224,4.224,0,0,1-.8-2.651,3.88,3.88,0,0,1,.816-2.379,6.633,6.633,0,0,1,2.287-1.858,4.19,4.19,0,0,1-1.381-1.563,4.93,4.93,0,0,1-.431-2.175,4.565,4.565,0,0,1,.442-1.993,6.279,6.279,0,0,1,1.177-1.688,17.907,17.907,0,0,1,1.915-1.665,6.8,6.8,0,0,1-2.673-2.616,7.649,7.649,0,0,1-.907-3.8,7.957,7.957,0,0,1,.759-3.613,6.654,6.654,0,0,1,2.085-2.458,8.977,8.977,0,0,1,3.126-1.393,16.3,16.3,0,0,1,3.884-.442,16.107,16.107,0,0,1,2.039.114q.884.114,1.722.25h8.178ZM249.217,56.164a4.665,4.665,0,0,0-1.234,1.383,3.452,3.452,0,0,0-.419,1.721,2.576,2.576,0,0,0,1.416,2.413,9.665,9.665,0,0,0,4.475.782,8.086,8.086,0,0,0,4.338-.952,3.007,3.007,0,0,0,1.484-2.674A2.929,2.929,0,0,0,259,57.523a2.1,2.1,0,0,0-1.066-.906,5.536,5.536,0,0,0-2.243-.362h-3.9Q250.146,56.255,249.217,56.164Zm.816-16.651a8.742,8.742,0,0,0,.8,4.248,2.708,2.708,0,0,0,2.526,1.393,2.668,2.668,0,0,0,2.39-1.29,7.442,7.442,0,0,0,.828-3.942,8.984,8.984,0,0,0-.8-4.247,2.628,2.628,0,0,0-2.457-1.461,2.712,2.712,0,0,0-2.481,1.3A7.794,7.794,0,0,0,250.033,39.513Z" transform="translate(-196.367 -11.17)"/><path d="M262.256,55.049a3.084,3.084,0,0,0,1.528-.771,2.6,2.6,0,0,0,.566-1.291,19.6,19.6,0,0,0,.147-2.968V39.486a12.5,12.5,0,0,0-.1-1.789,2.541,2.541,0,0,0-.385-1.087,1.8,1.8,0,0,0-.769-.623,6.351,6.351,0,0,0-1.258-.374v-1.54l6.23-.181h2.832V50q0,1.27.033,1.959a8.971,8.971,0,0,0,.1,1.066,3.169,3.169,0,0,0,.193.668,2.205,2.205,0,0,0,.328.544,1.9,1.9,0,0,0,.589.454,4.659,4.659,0,0,0,1.019.362v1.494H262.256Zm8.609-30.016v5.551h-6.207V25.033Z" transform="translate(-191.102 -13)"/><path d="M308.508,51.747l-.34-.114a13.433,13.433,0,0,1-3.613,2.628,8.742,8.742,0,0,1-3.727.815,7.539,7.539,0,0,1-3.386-.713,5,5,0,0,1-2.175-1.982,5.705,5.705,0,0,1-.736-2.922,5.85,5.85,0,0,1,3.273-5.244q3.273-1.914,9.933-2.413V39.65a8.77,8.77,0,0,0-.475-3.251,2.954,2.954,0,0,0-3.014-2.073,4.158,4.158,0,0,0-1.8.362,3.4,3.4,0,0,0-1.37,1.371,7.936,7.936,0,0,0-.906,2.8H295.89V34.734q2.085-.93,3.466-1.428a27.088,27.088,0,0,1,2.73-.826,22.273,22.273,0,0,1,2.413-.464,16.68,16.68,0,0,1,2.129-.137,11.027,11.027,0,0,1,4.383.725,4.881,4.881,0,0,1,2.458,2.357,10.235,10.235,0,0,1,.815,4.508V48.3q0,1.5.068,2.311a4.863,4.863,0,0,0,.215,1.212,1.854,1.854,0,0,0,.374.635,1.746,1.746,0,0,0,.555.385,8.686,8.686,0,0,0,1.234.374v1.494H308.3Zm-.748-7.725a9.321,9.321,0,0,0-5.2,1.314,4.141,4.141,0,0,0-1.688,3.579,2.828,2.828,0,0,0,.769,2.142,2.961,2.961,0,0,0,2.13.735,3.778,3.778,0,0,0,1.971-.555,4.137,4.137,0,0,0,1.473-1.483,3.842,3.842,0,0,0,.544-1.972Z" transform="translate(-182.403 -11.17)"/><path d="M323.194,50.193a21.442,21.442,0,0,0,.136,2.968,2.623,2.623,0,0,0,.555,1.3,3.082,3.082,0,0,0,1.575.782v1.494h-11.1V55.245a4.235,4.235,0,0,0,1.064-.374,1.926,1.926,0,0,0,.6-.5,2.734,2.734,0,0,0,.374-.724,4.587,4.587,0,0,0,.2-1.224q.046-.781.046-2.232V32.523q0-1.948-.034-2.865a12.619,12.619,0,0,0-.136-1.541,2.657,2.657,0,0,0-.34-1,1.72,1.72,0,0,0-.668-.6,5.321,5.321,0,0,0-1.383-.408v-1.5l6.274-.317h2.832Z" transform="translate(-177.177 -13.196)"/><path class="a" d="M272.651,29.627l12.181,29.691V41.432L274.263,28.66A.951.951,0,0,0,272.651,29.627Z" transform="translate(-188.272 -12.125)"/><path class="b" d="M282.247,62.731,311.2,16.785a.808.808,0,0,0-1.264-.994L282.247,44.944Z" transform="translate(-185.686 -15.538)"/><g transform="translate(73.86 50.961)"><path d="M264.334,55.906h1.536V66.551h-1.536Z" transform="translate(-264.334 -55.71)"/><path d="M272.57,57.366h-2.22v9.185h-1.566V57.366h-2.205v-1.46h5.992Z" transform="translate(-263.734 -55.71)"/><path d="M275.242,65.955a3.121,3.121,0,0,1-.852-2.281h1.566a1.709,1.709,0,0,0,.418,1.215,1.79,1.79,0,0,0,2.266.015,1.569,1.569,0,0,0-.084-2.152,8.06,8.06,0,0,0-1.431-1.011,14.633,14.633,0,0,1-1.337-.912,3.586,3.586,0,0,1-.86-.988,2.665,2.665,0,0,1-.357-1.4,2.7,2.7,0,0,1,.357-1.376,2.511,2.511,0,0,1,1.02-.966,3.252,3.252,0,0,1,1.544-.348,2.866,2.866,0,0,1,2.143.806,3.069,3.069,0,0,1,.823,2.175h-1.566a1.633,1.633,0,0,0-.38-1.127,1.335,1.335,0,0,0-1-.38,1.429,1.429,0,0,0-1,.335,1.173,1.173,0,0,0-.365.914,1.269,1.269,0,0,0,.243.774,2.486,2.486,0,0,0,.6.585c.238.167.577.383,1.011.648a13.917,13.917,0,0,1,1.369.9,3.54,3.54,0,0,1,.883,1.011,2.843,2.843,0,0,1,.364,1.467,3.04,3.04,0,0,1-.364,1.475,2.69,2.69,0,0,1-1.073,1.066,3.364,3.364,0,0,1-1.665.394A3.061,3.061,0,0,1,275.242,65.955Z" transform="translate(-261.646 -55.751)"/><path d="M281.125,65.84a3.746,3.746,0,0,1-.867-2.623V59.325a3.746,3.746,0,0,1,.867-2.623,3.474,3.474,0,0,1,4.775,0,3.752,3.752,0,0,1,.867,2.623v3.892a3.752,3.752,0,0,1-.867,2.623,3.474,3.474,0,0,1-4.775,0Zm3.635-1.087a2.415,2.415,0,0,0,.426-1.536V59.325a2.419,2.419,0,0,0-.426-1.537,1.727,1.727,0,0,0-2.494,0,2.4,2.4,0,0,0-.426,1.537v3.892a2.4,2.4,0,0,0,.426,1.536,1.727,1.727,0,0,0,2.494,0Z" transform="translate(-260.078 -55.751)"/><path d="M291.9,65.091v1.46h-5.064V55.906h1.537v9.185Z" transform="translate(-258.321 -55.71)"/><path d="M292.118,65.813a3.488,3.488,0,0,1-.844-2.5V55.906h1.566v7.407a2.128,2.128,0,0,0,.409,1.421,1.423,1.423,0,0,0,1.141.48,1.443,1.443,0,0,0,1.157-.48,2.128,2.128,0,0,0,.411-1.421V55.906h1.551v7.407a3.508,3.508,0,0,1-.838,2.5,3.358,3.358,0,0,1-4.553,0Z" transform="translate(-257.134 -55.71)"/><path d="M303.1,57.366h-2.22v9.185h-1.565V57.366H297.1v-1.46H303.1Z" transform="translate(-255.575 -55.71)"/><path d="M302.8,55.906h1.536V66.551H302.8Z" transform="translate(-254.052 -55.71)"/><path d="M306.312,65.84a3.746,3.746,0,0,1-.867-2.623V59.325a3.746,3.746,0,0,1,.867-2.623,3.474,3.474,0,0,1,4.775,0,3.746,3.746,0,0,1,.867,2.623v3.892a3.746,3.746,0,0,1-.867,2.623,3.474,3.474,0,0,1-4.775,0Zm3.635-1.087a2.408,2.408,0,0,0,.426-1.536V59.325a2.412,2.412,0,0,0-.426-1.537,1.727,1.727,0,0,0-2.494,0,2.412,2.412,0,0,0-.426,1.537v3.892a2.408,2.408,0,0,0,.426,1.536,1.727,1.727,0,0,0,2.494,0Z" transform="translate(-253.346 -55.751)"/><path d="M312.021,55.906h1.536l2.448,5.429q.274.608.973,2.342l.046-.03q-.091-.776-.152-1.825t-.061-1.763V55.906h1.521V66.551H316.8l-2.372-5.216q-.654-1.625-1.019-2.584l-.046.029q.076.791.129,1.849c.035.7.053,1.31.053,1.817v4.1h-1.521Z" transform="translate(-251.589 -55.71)"/><path d="M319,65.955a3.132,3.132,0,0,1-.852-2.281h1.566a1.715,1.715,0,0,0,.418,1.215,1.79,1.79,0,0,0,2.266.015,1.566,1.566,0,0,0-.084-2.152,8.042,8.042,0,0,0-1.43-1.011,14.5,14.5,0,0,1-1.338-.912,3.6,3.6,0,0,1-.859-.988,2.653,2.653,0,0,1-.357-1.4,2.692,2.692,0,0,1,.357-1.376,2.507,2.507,0,0,1,1.019-.966,3.255,3.255,0,0,1,1.544-.348,2.867,2.867,0,0,1,2.144.806,3.074,3.074,0,0,1,.821,2.175h-1.566a1.622,1.622,0,0,0-.38-1.127,1.33,1.33,0,0,0-1-.38,1.435,1.435,0,0,0-1,.335,1.177,1.177,0,0,0-.365.914,1.277,1.277,0,0,0,.243.774,2.514,2.514,0,0,0,.6.585q.357.251,1.011.648a14.07,14.07,0,0,1,1.369.9,3.516,3.516,0,0,1,.882,1.011,2.831,2.831,0,0,1,.365,1.467,3.027,3.027,0,0,1-.365,1.475,2.679,2.679,0,0,1-1.072,1.066,3.371,3.371,0,0,1-1.665.394A3.066,3.066,0,0,1,319,65.955Z" transform="translate(-249.95 -55.751)"/></g></g></g></svg>