<?xml version="1.0" encoding="utf-8"?>
<!-- Generator: Adobe Illustrator 26.3.1, SVG Export Plug-In . SVG Version: 6.00 Build 0)  -->
<svg version="1.1" id="Layer_1" xmlns="http://www.w3.org/2000/svg" xmlns:xlink="http://www.w3.org/1999/xlink" x="0px" y="0px"
	 viewBox="0 0 80 80" style="enable-background:new 0 0 80 80;" xml:space="preserve">
<style type="text/css">
	.st0{fill-rule:evenodd;clip-rule:evenodd;}
</style>
<g>
	<path class="st0" d="M43.1,38.7l11.4,11.4c1.2,1.2,1.2,3.1,0,4.3c-1.2,1.2-3.1,1.2-4.3,0L37.8,42.2c-0.6-0.6-0.9-1.4-0.9-2.2V15.5
		c0-1.7,1.4-3.1,3.1-3.1c1.7,0,3.1,1.4,3.1,3.1L43.1,38.7z"/>
	<path class="st0" d="M63.8,63.8C50.7,77,29.3,77,16.2,63.8C3,50.7,3,29.3,16.2,16.2C29.3,3,50.7,3,63.8,16.2
		C74.2,26.5,76.4,42,70.4,54.5c-0.7,1.5-0.1,3.4,1.4,4.1c1.5,0.7,3.4,0.1,4.1-1.4c7.1-14.8,4.5-33.1-7.8-45.4
		c-15.6-15.6-40.8-15.6-56.4,0c-15.6,15.6-15.6,40.8,0,56.4c15.6,15.6,40.8,15.6,56.4,0c1.2-1.2,1.2-3.1,0-4.3
		C67,62.7,65,62.7,63.8,63.8L63.8,63.8z"/>
</g>
</svg>
