<?xml version="1.0" encoding="utf-8"?>
<!-- Generator: Adobe Illustrator 26.3.1, SVG Export Plug-In . SVG Version: 6.00 Build 0)  -->
<svg version="1.1" id="Layer_1" xmlns="http://www.w3.org/2000/svg" xmlns:xlink="http://www.w3.org/1999/xlink" x="0px" y="0px"
	 viewBox="0 0 80 80" style="enable-background:new 0 0 80 80;" xml:space="preserve">
<style type="text/css">
	.st0{fill:none;stroke:#000000;stroke-width:3;stroke-linecap:square;stroke-linejoin:round;stroke-miterlimit:10;}
	.st1{fill:none;stroke:#000000;stroke-width:3;stroke-linecap:round;stroke-linejoin:round;stroke-miterlimit:10;}
</style>
<path class="st0" d="M70.1,6h-29c-3.5,0-6.3,2.8-6.3,6.3v15.3c0,3.4,2.8,6.2,6.2,6.3v3.8c0,1.7,1,3.2,2.6,3.9c0.5,0.2,1,0.3,1.6,0.3
	c1.1,0,2.2-0.4,3-1.3l6.8-6.8h15.2c3.5,0,6.3-2.8,6.3-6.3V12.3C76.4,8.8,73.5,6,70.1,6L70.1,6z"/>
<g>
	<path d="M67.1,18.9c0,1.5-1.2,2.7-2.7,2.7s-2.7-1.2-2.7-2.7c0-1.5,1.2-2.7,2.7-2.7S67.1,17.4,67.1,18.9"/>
	<path d="M49.7,18.9c0,1.5-1.2,2.7-2.7,2.7c-1.5,0-2.7-1.2-2.7-2.7c0-1.5,1.2-2.7,2.7-2.7C48.5,16.2,49.7,17.4,49.7,18.9"/>
	<path d="M58.7,18.9c0,1.5-1.2,2.7-2.7,2.7c-1.5,0-2.7-1.2-2.7-2.7c0-1.5,1.2-2.7,2.7-2.7C57.5,16.2,58.7,17.4,58.7,18.9"/>
</g>
<path class="st1" d="M48.2,57.8l-5.9-4.7c-1.3-1-2.9-1.6-4.5-1.6c-2.1,0-4.1,0.9-5.5,2.5c-0.3,0.4-0.5,0.6-0.7,0.9
	c-0.8-0.5-2.2-1.5-4.3-3.7c-2.2-2.2-3.1-3.5-3.7-4.3c0.2-0.2,0.5-0.4,0.9-0.7c3-2.5,3.4-7,1-10l-4.8-5.9c-1.4-1.7-3.4-2.8-5.7-2.8
	c-1,0-1.9,0.2-2.9,0.6c-2.5,1-5.9,4-6.6,4.8C0.9,37.5,3,44.2,4.7,47.7c2.2,4.6,6.1,9.7,11.2,14.9c4.9,4.9,14.4,13.2,22.6,13.2
	c2.8,0,5.2-1,7-2.8c0.7-0.7,3.7-4.1,4.8-6.6C51.6,63.4,50.8,59.8,48.2,57.8L48.2,57.8z"/>
</svg>
