<?xml version="1.0" encoding="UTF-8"?><svg id="Layer_1" xmlns="http://www.w3.org/2000/svg" viewBox="0 0 409.03 97.89"><defs><style>.cls-1{fill:#2d2f79;}.cls-2{fill:#e71e63;}.cls-3{fill:#414141;}.cls-4{fill:#ffc00e;}.cls-5{fill:#fdea39;}.cls-6{fill:#ee4338;}.cls-7{fill:#dbdcdd;}.cls-8{fill:#478ecc;}.cls-9{fill:none;stroke:#414141;stroke-linecap:round;stroke-linejoin:round;stroke-width:2px;}</style></defs><g><g><path class="cls-2" d="M35.76,73.14c-4.18-4-8.32-7.7-12.39-10.74V28.96l12.39,7.14v37.04Z"/><polygon class="cls-6" points="52.54 12.12 66.03 18.64 35.76 36.1 23.37 28.96 52.54 12.12"/></g><g><path class="cls-1" d="M4.99,18.34l12.43,7.12-.02,32.26c-4.54-3.35-8.79-6.4-12.41-8.75V18.34Z"/><path class="cls-8" d="M33.89,1.62c3.76,2.33,7.96,4.72,12.45,7.16L17.42,25.46l-12.43-7.12L33.89,1.62Z"/></g><g><path class="cls-5" d="M54.23,46.71v49.57c-2.69-5.87-7.13-11.53-12.37-17.09V39.59l12.37,7.12Z"/><g><path class="cls-4" d="M73,21.57c5.35,2.15,10.67,3.91,15.93,5.11l-34.7,20.04-12.37-7.12,31.14-18.02Z"/><polygon class="cls-7" points="60.86 80.09 86.2 65.45 86.2 36.36 60.86 51.09 60.86 80.09"/></g></g></g><g><g><path d="M109.16,2.16h14.7c3.47,0,6.14,.25,8.02,.75,1.88,.5,3.21,1.31,4,2.4,.78,1.1,1.17,2.64,1.17,4.61v4.47c0,1.01-.4,1.96-1.2,2.85-.8,.89-1.74,1.51-2.82,1.85v.28c1.42,.15,2.71,.75,3.89,1.82,1.17,1.06,1.76,2.25,1.76,3.55v5.59c0,2.95-1.17,5.03-3.52,6.26-2.35,1.23-5.98,1.85-10.9,1.85h-15.1V2.16Zm14.7,14.76c1.38,0,2.4-.11,3.08-.34,.67-.22,1.13-.59,1.37-1.09,.24-.5,.36-1.24,.36-2.21v-1.79c0-.86-.11-1.5-.34-1.93-.22-.43-.68-.74-1.37-.92-.69-.19-1.78-.28-3.27-.28h-5.81v8.55h5.98Zm.22,15.32c2.12,0,3.63-.24,4.53-.73,.89-.48,1.34-1.27,1.34-2.35v-2.91c0-1.34-.35-2.29-1.03-2.85-.69-.56-1.91-.84-3.66-.84h-7.38v9.67h6.21Z"/><path d="M155.48,38.62c-1.7-.26-3.46-.71-5.28-1.34-1.98-.67-3.52-1.76-4.64-3.27-1.12-1.51-1.68-3.35-1.68-5.51V12.62c0-1.79,.4-3.39,1.2-4.81,.8-1.42,1.84-2.53,3.1-3.35,1.12-.71,2.5-1.3,4.14-1.79,1.64-.48,3.17-.78,4.58-.89,1.3-.11,2.68-.17,4.14-.17,1.71,0,3.21,.07,4.47,.2,1.27,.13,2.68,.4,4.25,.81,1.79,.52,3.26,1.16,4.42,1.9,1.15,.75,2.12,1.79,2.91,3.13,.82,1.38,1.23,3.04,1.23,4.98v15.88c0,2.01-.53,3.75-1.59,5.2-1.06,1.45-2.53,2.55-4.39,3.3-3.35,1.34-7.12,2.01-11.29,2.01-2.01,0-3.87-.13-5.56-.39Zm8.78-5.95c.84-.09,1.71-.27,2.6-.53,.89-.26,1.57-.7,2.04-1.31,.47-.62,.7-1.39,.7-2.32V12.56c0-1.71-.69-2.94-2.07-3.66-1.38-.73-3.52-1.09-6.43-1.09s-5.05,.35-6.43,1.06c-1.38,.71-2.07,1.94-2.07,3.69v15.94c0,.93,.24,1.71,.73,2.32,.48,.62,1.19,1.05,2.12,1.31,.89,.26,1.76,.44,2.6,.53,.84,.09,1.87,.14,3.1,.14s2.26-.05,3.1-.14Z"/><path d="M196.19,38.62c-1.7-.26-3.46-.71-5.28-1.34-1.98-.67-3.52-1.76-4.64-3.27-1.12-1.51-1.68-3.35-1.68-5.51V12.62c0-1.79,.4-3.39,1.2-4.81,.8-1.42,1.84-2.53,3.1-3.35,1.12-.71,2.5-1.3,4.14-1.79,1.64-.48,3.17-.78,4.58-.89,1.3-.11,2.68-.17,4.14-.17,1.71,0,3.21,.07,4.47,.2,1.27,.13,2.68,.4,4.25,.81,1.79,.52,3.26,1.16,4.42,1.9,1.15,.75,2.12,1.79,2.91,3.13,.82,1.38,1.23,3.04,1.23,4.98v15.88c0,2.01-.53,3.75-1.59,5.2-1.06,1.45-2.53,2.55-4.39,3.3-3.35,1.34-7.12,2.01-11.29,2.01-2.01,0-3.87-.13-5.56-.39Zm8.78-5.95c.84-.09,1.71-.27,2.6-.53,.89-.26,1.57-.7,2.04-1.31,.47-.62,.7-1.39,.7-2.32V12.56c0-1.71-.69-2.94-2.07-3.66-1.38-.73-3.52-1.09-6.43-1.09s-5.05,.35-6.43,1.06c-1.38,.71-2.07,1.94-2.07,3.69v15.94c0,.93,.24,1.71,.73,2.32,.48,.62,1.19,1.05,2.12,1.31,.89,.26,1.76,.44,2.6,.53,.84,.09,1.87,.14,3.1,.14s2.26-.05,3.1-.14Z"/><path d="M226.07,2.16h15.43c4.25,0,7.6,.33,10.06,.98,2.46,.65,4.27,1.78,5.42,3.38,1.15,1.6,1.73,3.82,1.73,6.65v14.76c0,2.76-.54,4.89-1.62,6.4-1.08,1.51-2.85,2.57-5.31,3.19-2.46,.62-5.87,.92-10.23,.92h-15.49V2.16Zm15.1,30.08c2.39,0,4.18-.1,5.4-.31,1.21-.2,2.09-.61,2.63-1.2,.54-.6,.81-1.53,.81-2.8V13.01c0-1.71-.68-2.92-2.04-3.61-1.36-.69-3.53-1.03-6.51-1.03h-6.65v23.87h6.37Z"/><path d="M264.65,38v-6.65c6.34,.97,10.66,1.45,12.97,1.45,4.85,0,7.27-1.25,7.27-3.75v-2.35c0-1.19-.35-2.11-1.03-2.74-.69-.63-1.93-.95-3.72-.95h-4.25c-7.98,0-11.97-3.17-11.97-9.51v-2.68c0-3.17,1.32-5.5,3.97-6.99,2.65-1.49,6.84-2.24,12.58-2.24,2.98,0,6.77,.24,11.35,.73v6.49c-5.63-.67-9.51-1.01-11.63-1.01-2.95,0-4.92,.24-5.93,.73-1.08,.52-1.62,1.34-1.62,2.46v2.57c0,1.9,1.6,2.85,4.81,2.85h4.36c4.14,0,7.14,.76,9,2.29,1.86,1.53,2.8,3.86,2.8,6.99v2.4c0,4.32-1.55,7.25-4.64,8.78-1.49,.78-3.14,1.33-4.95,1.65-1.81,.32-3.98,.48-6.51,.48-3.47,0-7.75-.34-12.86-1.01Z"/><path d="M299.65,2.16h8.72V38.45h-8.72V2.16Zm8.95,17.05l13.59-17.05h10.23l-13.75,16.89,15.26,19.4h-10.62l-14.7-19.23Z"/><path d="M347.4,2.16h10.62l13.08,36.29h-8.83l-3.24-9.56h-13.25l-3.19,9.56h-8.61l13.42-36.29Zm9.73,20.91l-4.58-13.64h-.22l-4.58,13.64h9.39Z"/><path d="M375.13,2.16h14.54c3.54,0,6.35,.24,8.41,.73,2.07,.48,3.58,1.33,4.53,2.54,.95,1.21,1.43,2.9,1.43,5.06v6.88c0,2.39-.51,4.25-1.54,5.59-1.03,1.34-2.65,2.29-4.86,2.85-2.22,.56-5.21,.84-8.97,.84h-4.81v11.8h-8.72V2.16Zm14.26,18.51c2.27,0,3.88-.27,4.81-.81,.93-.54,1.4-1.46,1.4-2.77v-5.81c0-1.19-.45-1.98-1.34-2.35-.86-.37-2.52-.56-4.98-.56h-5.42v12.3h5.54Z"/></g><g><path class="cls-3" d="M111.19,88.19l3.6-27.98,16.05,21.05,2.67-19.99h3.2l-3.68,27.97-15.98-20.85-2.67,19.8h-3.2Z"/><path class="cls-3" d="M155.28,80.27l-13.48,.02v.29c0,1.8,.46,3.22,1.38,4.26,.92,1.04,2.18,1.55,3.77,1.55,.99,0,1.91-.24,2.74-.72,.83-.48,1.64-1.22,2.43-2.22l2.02,1.65c-.98,1.28-2.06,2.23-3.24,2.86s-2.46,.95-3.84,.95c-2.51,0-4.51-.76-5.98-2.27-1.48-1.51-2.22-3.56-2.22-6.13,0-2.81,.86-5.13,2.57-6.98,1.72-1.84,3.87-2.77,6.45-2.77,2.35,0,4.18,.72,5.48,2.15,1.3,1.43,1.95,3.45,1.95,6.05,0,.36,0,.63,0,.81,0,.18-.02,.35-.03,.5Zm-2.79-2.39c-.02-1.52-.44-2.69-1.24-3.51-.8-.82-1.93-1.23-3.39-1.23s-2.69,.43-3.74,1.29c-1.05,.86-1.73,2.01-2.05,3.46h10.43Z"/><path class="cls-3" d="M159.14,88.19l1.89-14.38h-3.13l.33-2.45h3.13l.86-6.78h2.98l-.9,6.78h3.7l-.31,2.45h-3.71l-1.89,14.38h-2.94Z"/><path class="cls-3" d="M168.54,71.37h3.09l3.27,11.51,6.8-12.65,3.77,12.65,6.21-11.51h3.09l-10.06,17.84-3.71-12.3-6.71,12.3-5.76-17.84Z"/><path class="cls-3" d="M195.6,80.47c0-2.76,.91-5.07,2.72-6.92,1.81-1.86,4.07-2.79,6.77-2.79,2.44,0,4.46,.77,6.05,2.31,1.59,1.54,2.39,3.45,2.39,5.75,0,2.99-.88,5.42-2.64,7.29-1.76,1.87-4.03,2.8-6.81,2.8-2.56,0-4.62-.77-6.16-2.32-1.54-1.54-2.32-3.59-2.32-6.12Zm9.34-7.34c-1.85,0-3.38,.68-4.59,2.05-1.21,1.37-1.81,3.1-1.81,5.21,0,1.85,.52,3.34,1.57,4.48,1.05,1.13,2.43,1.7,4.15,1.7,1.84,0,3.36-.68,4.56-2.04,1.2-1.36,1.8-3.09,1.8-5.19,0-1.81-.53-3.3-1.59-4.47-1.06-1.16-2.42-1.75-4.09-1.75Z"/><path class="cls-3" d="M227.34,74.11c-.32-.16-.64-.28-.97-.37-.33-.09-.66-.13-.99-.13-1.29,0-2.31,.54-3.06,1.62-.75,1.08-1.28,2.75-1.59,5.02l-1.07,7.94h-2.85l2.21-16.82h2.91l-.46,2.67c.77-1.14,1.55-1.97,2.34-2.49,.79-.52,1.66-.78,2.6-.78,.27,0,.55,.03,.84,.09,.29,.06,.57,.15,.86,.28l-.75,2.98Z"/><path class="cls-3" d="M233.7,78.67l8.55-7.3h4.06l-9.23,7.67,7.23,9.16h-3.82l-6.86-8.92-1.21,8.92h-2.89l3.75-28.5h2.91l-2.48,18.98Z"/><path class="cls-3" d="M257.7,80.47c0-2.76,.91-5.07,2.72-6.92,1.81-1.86,4.07-2.79,6.77-2.79,2.44,0,4.46,.77,6.05,2.31,1.59,1.54,2.39,3.45,2.39,5.75,0,2.99-.88,5.42-2.64,7.29-1.76,1.87-4.03,2.8-6.81,2.8-2.56,0-4.62-.77-6.16-2.32-1.54-1.54-2.32-3.59-2.32-6.12Zm9.34-7.34c-1.85,0-3.38,.68-4.59,2.05-1.21,1.37-1.81,3.1-1.81,5.21,0,1.85,.52,3.34,1.57,4.48,1.05,1.13,2.43,1.7,4.15,1.7,1.84,0,3.36-.68,4.56-2.04,1.2-1.36,1.8-3.09,1.8-5.19,0-1.81-.53-3.3-1.59-4.47-1.06-1.16-2.42-1.75-4.09-1.75Z"/><path class="cls-3" d="M280.02,88.19l1.88-14.38h-3.09l.31-2.45h3.13l.64-4.95c.36-2.72,.91-4.58,1.66-5.58,.75-1,1.92-1.5,3.48-1.5,.48,0,.93,.05,1.37,.16,.44,.1,.87,.27,1.31,.49l-.5,2.56c-.53-.23-.93-.39-1.21-.47-.28-.08-.53-.12-.75-.12-.69,0-1.2,.26-1.53,.77-.33,.51-.61,1.65-.85,3.4l-.7,5.24h3.71l-.33,2.45h-3.7l-1.88,14.38h-2.98Z"/><path class="cls-3" d="M305.92,88.19l3.13-24h-6.77l.37-2.92h16.95l-.39,2.92h-6.84l-3.18,24h-3.27Z"/><path class="cls-3" d="M319.92,88.19l3.75-28.5h2.91l-2,14.42c.86-1.12,1.81-1.95,2.86-2.51,1.05-.56,2.2-.84,3.45-.84,1.61,0,2.88,.44,3.82,1.32,.94,.88,1.41,2.08,1.41,3.6,0,.27-.01,.56-.04,.88-.02,.32-.06,.65-.11,.99l-1.4,10.63h-2.94l1.32-10.32c.01-.09,.02-.2,.04-.35,.07-.6,.11-1,.11-1.2,0-1-.31-1.77-.92-2.3-.61-.53-1.51-.79-2.68-.79-1.54,0-2.79,.55-3.73,1.65-.94,1.1-1.56,2.69-1.84,4.79l-1.14,8.51h-2.85Z"/><path class="cls-3" d="M340.44,88.19l2.22-16.82h2.92l-2.22,16.82h-2.92Zm2.41-24.79c0-.54,.2-1,.6-1.4,.4-.39,.87-.59,1.42-.59s1.04,.19,1.42,.58c.39,.39,.58,.85,.58,1.41s-.19,1.06-.58,1.45c-.39,.39-.86,.59-1.42,.59s-1.03-.2-1.42-.6c-.4-.4-.6-.88-.6-1.44Z"/><path class="cls-3" d="M349.41,88.19l2.21-16.82h2.79l-.39,2.74c.94-1.14,1.93-1.98,2.96-2.53,1.03-.55,2.16-.82,3.38-.82,1.61,0,2.88,.44,3.82,1.32,.94,.88,1.41,2.08,1.41,3.6,0,.27-.01,.56-.04,.88-.02,.32-.06,.65-.11,.99l-1.4,10.63h-2.94l1.32-10.32c.01-.09,.02-.2,.04-.35,.07-.6,.11-1,.11-1.2,0-1-.31-1.77-.92-2.3-.61-.53-1.51-.79-2.68-.79-1.54,0-2.79,.55-3.73,1.65-.94,1.1-1.56,2.69-1.84,4.79l-1.14,8.51h-2.85Z"/><path class="cls-3" d="M384.84,71.37h2.89l-1.69,13.37c-.04,.27-.09,.66-.15,1.16-.4,3.33-.97,5.6-1.69,6.78-.76,1.26-1.73,2.18-2.9,2.75-1.17,.57-2.69,.86-4.57,.86-2.24,0-4.04-.62-5.4-1.86-1.35-1.24-2.05-2.9-2.09-4.98l2.89-.39c.05,1.54,.53,2.73,1.44,3.57,.91,.83,2.19,1.25,3.83,1.25,1.48,0,2.68-.51,3.59-1.54,.91-1.02,1.47-2.48,1.68-4.37l.29-2.57c-.81,1.09-1.71,1.9-2.71,2.43-1,.53-2.14,.79-3.41,.79-2.12,0-3.86-.77-5.23-2.31-1.37-1.54-2.05-3.51-2.05-5.91,0-2.77,.82-5.07,2.47-6.9,1.65-1.83,3.71-2.74,6.19-2.74,1.5,0,2.76,.33,3.79,.98,1.03,.66,1.81,1.63,2.35,2.93l.46-3.31Zm-6.97,14.6c1.63,0,3.02-.67,4.16-2.02,1.14-1.35,1.71-3.02,1.71-5.02,0-1.69-.44-3.06-1.33-4.09-.89-1.04-2.05-1.55-3.48-1.55-1.86,0-3.39,.65-4.58,1.95-1.19,1.3-1.78,2.96-1.78,4.98,0,1.7,.49,3.09,1.48,4.16,.99,1.07,2.26,1.6,3.83,1.6Z"/><path class="cls-3" d="M389.88,85.75l1.88-2.22c.61,.99,1.31,1.74,2.09,2.23,.78,.5,1.64,.74,2.58,.74,1.05,0,1.89-.24,2.51-.73,.62-.48,.93-1.14,.93-1.96,0-.92-.87-1.78-2.61-2.57-.44-.21-.79-.38-1.05-.51-1.61-.77-2.67-1.49-3.2-2.15-.53-.66-.79-1.5-.79-2.5,0-1.54,.57-2.82,1.71-3.82,1.14-1,2.6-1.5,4.39-1.5,1.13,0,2.17,.21,3.13,.63,.96,.42,1.82,1.04,2.59,1.86l-1.77,2.11c-.51-.69-1.12-1.2-1.82-1.55-.7-.35-1.48-.52-2.34-.52s-1.56,.24-2.15,.73c-.59,.48-.88,1.06-.88,1.72,0,.91,1.04,1.81,3.11,2.7,.13,.05,.24,.09,.31,.13,1.65,.71,2.76,1.42,3.33,2.11,.56,.7,.85,1.61,.85,2.74,0,1.7-.55,3.05-1.65,4.03-1.1,.98-2.61,1.47-4.52,1.47-1.42,0-2.67-.26-3.75-.77-1.08-.51-2.03-1.31-2.87-2.39Z"/></g><line class="cls-9" x1="109.16" y1="49.58" x2="402.85" y2="49.58"/></g></svg>