<?xml version="1.0" encoding="utf-8"?>
<!-- Generator: Adobe Illustrator 26.5.0, SVG Export Plug-In . SVG Version: 6.00 Build 0)  -->
<svg version="1.1" id="Layer_1" xmlns="http://www.w3.org/2000/svg" xmlns:xlink="http://www.w3.org/1999/xlink" x="0px" y="0px"
	 viewBox="0 0 240 51.9" style="enable-background:new 0 0 240 51.9;" xml:space="preserve">
<style type="text/css">
	.st0{fill:#E71E63;}
	.st1{fill:#EE4338;}
	.st2{fill:#2D2F79;}
	.st3{fill:#478ECC;}
	.st4{fill:#FDEA39;}
	.st5{fill:#FFC00E;}
	.st6{fill:#DBDCDD;}
	.st7{fill:#FFFFFF;}
</style>
<g>
	<g>
		<g>
			<path class="st0" d="M16.5,38.1c-2.1-2-4.2-3.9-6.3-5.4V15.8l6.3,3.6V38.1L16.5,38.1z"/>
			<polygon class="st1" points="25,7.3 31.8,10.7 16.5,19.4 10.3,15.8 			"/>
		</g>
		<g>
			<path class="st2" d="M1,10.5l6.3,3.6v16.3C5,28.7,2.9,27.1,1,25.9L1,10.5L1,10.5z"/>
			<path class="st3" d="M15.6,2.1c1.9,1.2,4,2.4,6.3,3.6L7.2,14.1L1,10.5L15.6,2.1z"/>
		</g>
		<g>
			<path class="st4" d="M25.8,24.8v25c-1.3-3-3.6-5.8-6.3-8.6V21.2L25.8,24.8z"/>
			<g>
				<path class="st5" d="M35.3,12.1c2.7,1.1,5.3,1.9,8,2.6L25.8,24.8l-6.3-3.6L35.3,12.1L35.3,12.1z"/>
				<polygon class="st6" points="29.2,41.6 41.9,34.3 41.9,19.6 29.2,27 				"/>
			</g>
		</g>
	</g>
	<g>
		<path class="st7" d="M51.9,14.4h9.4c2.2,0,3.9,0.2,5.1,0.5c1.2,0.3,2.1,0.9,2.6,1.5c0.5,0.7,0.7,1.7,0.7,2.9v2.9
			c0,0.7-0.2,1.2-0.8,1.8c-0.5,0.5-1.1,1-1.8,1.2v0.2c0.9,0.1,1.7,0.5,2.5,1.2c0.7,0.7,1.1,1.4,1.1,2.2v3.5c0,1.9-0.7,3.2-2.2,4
			c-1.5,0.8-3.8,1.2-6.9,1.2h-9.6V14.4L51.9,14.4z M61.3,23.8c0.9,0,1.5-0.1,1.9-0.2c0.4-0.1,0.7-0.4,0.9-0.7
			c0.1-0.3,0.2-0.8,0.2-1.4v-1.2c0-0.5-0.1-1-0.2-1.2c-0.1-0.2-0.4-0.5-0.9-0.6c-0.4-0.1-1.2-0.2-2.1-0.2h-3.7v5.4
			C57.4,23.8,61.3,23.8,61.3,23.8z M61.4,33.5c1.3,0,2.3-0.1,2.9-0.5c0.5-0.3,0.9-0.8,0.9-1.5v-1.8c0-0.9-0.2-1.5-0.7-1.8
			c-0.4-0.4-1.2-0.5-2.3-0.5h-4.7v6.1L61.4,33.5L61.4,33.5z"/>
		<path class="st7" d="M81.3,37.5c-1.1-0.2-2.2-0.4-3.3-0.9c-1.3-0.4-2.2-1.1-2.9-2.1c-0.7-1-1.1-2.1-1.1-3.5V21.1
			c0-1.2,0.2-2.1,0.8-3c0.5-0.9,1.2-1.6,1.9-2.1c0.7-0.4,1.6-0.9,2.6-1.2c1-0.3,2-0.5,2.9-0.5c0.9-0.1,1.7-0.1,2.6-0.1
			c1.1,0,2,0.1,2.9,0.1c0.9,0.1,1.7,0.2,2.7,0.5c1.2,0.3,2.1,0.7,2.8,1.2c0.7,0.5,1.3,1.2,1.8,2c0.5,0.9,0.8,1.9,0.8,3.2v10.1
			c0,1.3-0.4,2.4-1,3.3c-0.7,0.9-1.6,1.6-2.8,2.1c-2.1,0.9-4.5,1.3-7.2,1.3C83.6,37.8,82.4,37.7,81.3,37.5L81.3,37.5z M86.8,33.8
			c0.5-0.1,1.1-0.2,1.6-0.4c0.5-0.2,1-0.4,1.3-0.9c0.3-0.4,0.4-0.9,0.4-1.5V21c0-1.1-0.4-1.9-1.3-2.3C88,18.2,86.6,18,84.8,18
			s-3.2,0.2-4.1,0.7c-0.9,0.4-1.3,1.2-1.3,2.4v10.1c0,0.6,0.1,1.1,0.5,1.5c0.3,0.4,0.7,0.7,1.3,0.9c0.5,0.2,1.1,0.3,1.6,0.4
			s1.2,0.1,1.9,0.1S86.4,33.8,86.8,33.8L86.8,33.8z"/>
		<path class="st7" d="M107.1,37.5c-1.1-0.2-2.2-0.4-3.3-0.9c-1.3-0.4-2.2-1.1-2.9-2.1c-0.7-1-1.1-2.1-1.1-3.5V21.1
			c0-1.2,0.2-2.1,0.8-3c0.5-0.9,1.2-1.6,1.9-2.1c0.7-0.4,1.6-0.9,2.6-1.2c1-0.3,2-0.5,2.9-0.5c0.9-0.1,1.7-0.1,2.6-0.1
			c1.1,0,2,0.1,2.9,0.1s1.7,0.2,2.7,0.5c1.2,0.3,2.1,0.7,2.8,1.2c0.7,0.5,1.3,1.2,1.8,2c0.5,0.9,0.8,1.9,0.8,3.2v10.1
			c0,1.3-0.4,2.4-1,3.3c-0.7,0.9-1.6,1.6-2.8,2.1c-2.1,0.9-4.5,1.3-7.2,1.3C109.4,37.8,108.2,37.7,107.1,37.5L107.1,37.5z
			 M112.7,33.8c0.5-0.1,1.1-0.2,1.6-0.4c0.5-0.2,1-0.4,1.3-0.9c0.3-0.4,0.4-0.9,0.4-1.5V21c0-1.1-0.4-1.9-1.3-2.3
			c-0.9-0.5-2.2-0.7-4.1-0.7s-3.2,0.2-4.1,0.7c-0.9,0.4-1.3,1.2-1.3,2.4v10.1c0,0.6,0.1,1.1,0.5,1.5c0.3,0.4,0.7,0.7,1.3,0.9
			c0.5,0.2,1.1,0.3,1.6,0.4s1.2,0.1,1.9,0.1C111.3,33.9,112.2,33.8,112.7,33.8L112.7,33.8z"/>
		<path class="st7" d="M126.1,14.4h9.8c2.7,0,4.8,0.2,6.4,0.6c1.6,0.4,2.7,1.2,3.5,2.1c0.7,1,1.1,2.4,1.1,4.2v9.4
			c0,1.8-0.4,3.1-1,4.1c-0.7,1-1.8,1.6-3.3,2c-1.6,0.4-3.7,0.6-6.5,0.6H126L126.1,14.4L126.1,14.4z M135.6,33.5
			c1.5,0,2.7-0.1,3.4-0.2c0.8-0.1,1.3-0.4,1.6-0.8c0.4-0.4,0.5-1,0.5-1.8v-9.5c0-1.1-0.4-1.8-1.3-2.3c-0.9-0.4-2.2-0.7-4.1-0.7h-4.2
			v15.1L135.6,33.5L135.6,33.5z"/>
		<path class="st7" d="M150.5,37.2V33c4,0.6,6.7,0.9,8.2,0.9c3.1,0,4.6-0.8,4.6-2.4v-1.5c0-0.7-0.2-1.3-0.7-1.8
			c-0.4-0.4-1.2-0.6-2.4-0.6h-2.7c-5,0-7.6-2-7.6-6V20c0-2,0.9-3.5,2.5-4.4c1.7-1,4.3-1.4,8-1.4c1.9,0,4.3,0.2,7.2,0.5v4.1
			c-3.6-0.4-6-0.7-7.4-0.7c-1.9,0-3.1,0.2-3.8,0.5c-0.7,0.3-1,0.9-1,1.6v1.6c0,1.2,1,1.8,3,1.8h2.8c2.6,0,4.6,0.5,5.7,1.5
			c1.2,1,1.8,2.4,1.8,4.4V31c0,2.7-1,4.6-2.9,5.6c-1,0.5-2,0.9-3.2,1c-1.2,0.2-2.6,0.3-4.1,0.3C156.5,37.8,153.8,37.6,150.5,37.2
			L150.5,37.2z"/>
		<path class="st7" d="M172.8,14.4h5.5v23h-5.5V14.4z M178.4,25.3l8.6-10.8h6.5l-8.8,10.7l9.7,12.3h-6.7L178.4,25.3L178.4,25.3z"/>
		<path class="st7" d="M203,14.4h6.7l8.3,23h-5.6l-2.1-6.1H202l-2,6.1h-5.5L203,14.4L203,14.4z M209.2,27.7l-2.9-8.6h-0.1l-2.9,8.6
			H209.2L209.2,27.7z"/>
		<path class="st7" d="M220.6,14.4h9.2c2.2,0,4,0.2,5.3,0.5c1.3,0.3,2.2,0.9,2.9,1.6c0.6,0.8,0.9,1.8,0.9,3.2v4.4
			c0,1.5-0.3,2.7-1,3.5c-0.7,0.9-1.7,1.5-3.1,1.8c-1.4,0.4-3.3,0.5-5.7,0.5h-3v7.5h-5.5V14.4L220.6,14.4z M229.7,26.2
			c1.5,0,2.4-0.2,3-0.5c0.6-0.4,0.9-0.9,0.9-1.8v-3.7c0-0.7-0.3-1.3-0.9-1.5c-0.5-0.2-1.6-0.4-3.2-0.4h-3.5v7.8H229.7L229.7,26.2z"
			/>
	</g>
</g>
</svg>
