<?xml version="1.0" encoding="utf-8"?>
<!-- Generator: Adobe Illustrator 26.3.1, SVG Export Plug-In . SVG Version: 6.00 Build 0)  -->
<svg version="1.1" id="Layer_1" xmlns="http://www.w3.org/2000/svg" xmlns:xlink="http://www.w3.org/1999/xlink" x="0px" y="0px"
	 viewBox="0 0 398.1 95.6" style="enable-background:new 0 0 398.1 95.6;" xml:space="preserve">
<style type="text/css">
	.st0{fill:#E71E63;}
	.st1{fill:#EE4338;}
	.st2{fill:#2D2F79;}
	.st3{fill:#478ECC;}
	.st4{fill:#FDEA39;}
	.st5{fill:#FFC00E;}
	.st6{fill:#DBDCDD;}
	.st7{fill:#FFFFFF;}
</style>
<g>
	<g>
		<g>
			<path class="st0" d="M28.8,67.8c-3.5-3.3-6.9-6.4-10.3-8.9V31.2l10.3,5.9V67.8L28.8,67.8z"/>
			<polygon class="st1" points="42.7,17.2 53.9,22.7 28.8,37.1 18.5,31.2 			"/>
		</g>
		<g>
			<path class="st2" d="M3.3,22.4l10.3,5.9l0,26.8c-3.8-2.8-7.3-5.3-10.3-7.3L3.3,22.4L3.3,22.4z"/>
			<path class="st3" d="M27.2,8.6c3.1,1.9,6.6,3.9,10.3,5.9l-24,13.8L3.3,22.4L27.2,8.6z"/>
		</g>
		<g>
			<path class="st4" d="M44.1,45.9V87c-2.2-4.9-5.9-9.6-10.3-14.2V40L44.1,45.9z"/>
			<g>
				<path class="st5" d="M59.7,25.1c4.4,1.8,8.8,3.2,13.2,4.2L44.1,45.9L33.8,40L59.7,25.1L59.7,25.1z"/>
				<polygon class="st6" points="49.6,73.6 70.6,61.5 70.6,37.4 49.6,49.6 				"/>
			</g>
		</g>
	</g>
	<g>
		<path class="st7" d="M87,28.9h15.4c3.6,0,6.4,0.3,8.4,0.8c2,0.5,3.4,1.4,4.2,2.5c0.8,1.1,1.2,2.8,1.2,4.8v4.7c0,1.1-0.4,2-1.3,3
			c-0.8,0.9-1.8,1.6-2.9,1.9v0.3c1.5,0.2,2.8,0.8,4.1,1.9c1.2,1.1,1.8,2.3,1.8,3.7v5.8c0,3.1-1.2,5.3-3.7,6.5
			c-2.4,1.3-6.2,1.9-11.4,1.9H87L87,28.9L87,28.9z M102.4,44.3c1.4,0,2.5-0.1,3.2-0.4c0.7-0.2,1.2-0.6,1.4-1.1
			c0.2-0.5,0.4-1.3,0.4-2.3v-1.9c0-0.9-0.1-1.6-0.4-2c-0.2-0.4-0.7-0.8-1.4-1c-0.7-0.2-1.9-0.3-3.4-0.3h-6.1v8.9
			C96.1,44.3,102.4,44.3,102.4,44.3z M102.6,60.3c2.2,0,3.8-0.2,4.7-0.8c0.9-0.5,1.4-1.3,1.4-2.4v-3c0-1.4-0.4-2.4-1.1-3
			c-0.7-0.6-2-0.9-3.8-0.9h-7.7v10.1L102.6,60.3L102.6,60.3z"/>
		<path class="st7" d="M135.4,66.9c-1.8-0.3-3.6-0.7-5.5-1.4c-2.1-0.7-3.7-1.8-4.8-3.4c-1.2-1.6-1.8-3.5-1.8-5.7V39.8
			c0-1.9,0.4-3.5,1.3-5s1.9-2.6,3.2-3.5c1.2-0.7,2.6-1.4,4.3-1.9c1.7-0.5,3.3-0.8,4.8-0.9c1.4-0.1,2.8-0.2,4.3-0.2
			c1.8,0,3.3,0.1,4.7,0.2s2.8,0.4,4.4,0.8c1.9,0.5,3.4,1.2,4.6,2c1.2,0.8,2.2,1.9,3,3.3c0.9,1.4,1.3,3.2,1.3,5.2v16.6
			c0,2.1-0.6,3.9-1.7,5.4c-1.1,1.5-2.6,2.7-4.6,3.4c-3.5,1.4-7.4,2.1-11.8,2.1C139.1,67.3,137.2,67.2,135.4,66.9L135.4,66.9z
			 M144.5,60.7c0.9-0.1,1.8-0.3,2.7-0.6c0.9-0.3,1.6-0.7,2.1-1.4c0.5-0.6,0.7-1.4,0.7-2.4V39.7c0-1.8-0.7-3.1-2.2-3.8
			c-1.4-0.8-3.7-1.1-6.7-1.1s-5.3,0.4-6.7,1.1s-2.2,2-2.2,3.9v16.6c0,1,0.2,1.8,0.8,2.4c0.5,0.6,1.2,1.1,2.2,1.4
			c0.9,0.3,1.8,0.5,2.7,0.6c0.9,0.1,2,0.1,3.2,0.1S143.7,60.8,144.5,60.7L144.5,60.7z"/>
		<path class="st7" d="M177.9,66.9c-1.8-0.3-3.6-0.7-5.5-1.4c-2.1-0.7-3.7-1.8-4.8-3.4c-1.2-1.6-1.8-3.5-1.8-5.7V39.8
			c0-1.9,0.4-3.5,1.3-5c0.8-1.5,1.9-2.6,3.2-3.5c1.2-0.7,2.6-1.4,4.3-1.9c1.7-0.5,3.3-0.8,4.8-0.9c1.4-0.1,2.8-0.2,4.3-0.2
			c1.8,0,3.3,0.1,4.7,0.2s2.8,0.4,4.4,0.8c1.9,0.5,3.4,1.2,4.6,2c1.2,0.8,2.2,1.9,3,3.3c0.9,1.4,1.3,3.2,1.3,5.2v16.6
			c0,2.1-0.6,3.9-1.7,5.4c-1.1,1.5-2.6,2.7-4.6,3.4c-3.5,1.4-7.4,2.1-11.8,2.1C181.6,67.3,179.6,67.2,177.9,66.9L177.9,66.9z
			 M187,60.7c0.9-0.1,1.8-0.3,2.7-0.6c0.9-0.3,1.6-0.7,2.1-1.4c0.5-0.6,0.7-1.4,0.7-2.4V39.7c0-1.8-0.7-3.1-2.2-3.8
			c-1.4-0.8-3.7-1.1-6.7-1.1s-5.3,0.4-6.7,1.1s-2.2,2-2.2,3.9v16.6c0,1,0.2,1.8,0.8,2.4c0.5,0.6,1.2,1.1,2.2,1.4
			c0.9,0.3,1.8,0.5,2.7,0.6c0.9,0.1,2,0.1,3.2,0.1S186.2,60.8,187,60.7L187,60.7z"/>
		<path class="st7" d="M209.1,28.9h16.1c4.4,0,7.9,0.3,10.5,1c2.6,0.7,4.5,1.9,5.7,3.5c1.2,1.7,1.8,4,1.8,6.9v15.4
			c0,2.9-0.6,5.1-1.7,6.7c-1.1,1.6-3,2.7-5.5,3.3c-2.6,0.6-6.1,1-10.7,1H209L209.1,28.9L209.1,28.9z M224.8,60.3
			c2.5,0,4.4-0.1,5.6-0.3c1.3-0.2,2.2-0.6,2.7-1.3c0.6-0.6,0.8-1.6,0.8-2.9V40.2c0-1.8-0.7-3-2.1-3.8c-1.4-0.7-3.7-1.1-6.8-1.1h-6.9
			v24.9L224.8,60.3L224.8,60.3z"/>
		<path class="st7" d="M249.3,66.3v-6.9c6.6,1,11.1,1.5,13.5,1.5c5.1,0,7.6-1.3,7.6-3.9v-2.4c0-1.2-0.4-2.2-1.1-2.9
			c-0.7-0.7-2-1-3.9-1h-4.4c-8.3,0-12.5-3.3-12.5-9.9v-2.8c0-3.3,1.4-5.7,4.1-7.3c2.8-1.6,7.1-2.3,13.1-2.3c3.1,0,7.1,0.3,11.9,0.8
			v6.8c-5.9-0.7-9.9-1.1-12.1-1.1c-3.1,0-5.1,0.3-6.2,0.8c-1.1,0.5-1.7,1.4-1.7,2.6v2.7c0,2,1.7,3,5,3h4.6c4.3,0,7.5,0.8,9.4,2.4
			c1.9,1.6,2.9,4,2.9,7.3v2.5c0,4.5-1.6,7.6-4.8,9.2c-1.6,0.8-3.3,1.4-5.2,1.7c-1.9,0.3-4.2,0.5-6.8,0.5
			C259.1,67.3,254.7,67,249.3,66.3L249.3,66.3z"/>
		<path class="st7" d="M285.9,28.9h9.1v37.9h-9.1V28.9z M295.2,46.7l14.2-17.8h10.7l-14.4,17.6l15.9,20.2h-11.1L295.2,46.7
			L295.2,46.7z"/>
		<path class="st7" d="M335.7,28.9h11.1l13.7,37.9h-9.2l-3.4-10H334l-3.3,10h-9L335.7,28.9L335.7,28.9z M345.9,50.7l-4.8-14.2h-0.2
			l-4.8,14.2H345.9L345.9,50.7z"/>
		<path class="st7" d="M364.6,28.9h15.2c3.7,0,6.6,0.3,8.8,0.8c2.2,0.5,3.7,1.4,4.7,2.7c1,1.3,1.5,3,1.5,5.3v7.2
			c0,2.5-0.5,4.4-1.6,5.8c-1.1,1.4-2.8,2.4-5.1,3c-2.3,0.6-5.4,0.9-9.4,0.9h-5v12.3h-9.1L364.6,28.9L364.6,28.9z M379.5,48.2
			c2.4,0,4-0.3,5-0.8c1-0.6,1.5-1.5,1.5-2.9v-6.1c0-1.2-0.5-2.1-1.4-2.4c-0.9-0.4-2.6-0.6-5.2-0.6h-5.7v12.8L379.5,48.2L379.5,48.2z
			"/>
	</g>
</g>
</svg>
