<?xml version="1.0" encoding="utf-8"?>
<!-- Generator: Adobe Illustrator 26.3.1, SVG Export Plug-In . SVG Version: 6.00 Build 0)  -->
<svg version="1.1" id="Layer_1" xmlns="http://www.w3.org/2000/svg" xmlns:xlink="http://www.w3.org/1999/xlink" x="0px" y="0px"
	 viewBox="0 0 100 100" style="enable-background:new 0 0 100 100;" xml:space="preserve">
<style type="text/css">
	.st0{fill:#46B249;}
</style>
<path class="st0" d="M7.5,39.5c1.3,0.3,2.6,0.2,3.9-0.2l9.8,16.8l2.3-1.4l-9.8-16.8c1.5-1.4,2.3-3.3,2.2-5.4c-0.1-2-1.1-3.9-2.8-5.1
	c-1.6-1.2-3.7-1.6-5.7-1.1c-2,0.5-3.6,1.9-4.5,3.7s-0.8,4,0,5.8C3.8,37.7,5.5,39,7.5,39.5L7.5,39.5L7.5,39.5z M10.1,29
	c1.1,0.3,1.9,0.9,2.5,1.9c0.6,0.9,0.7,2,0.5,3.1s-0.9,2-1.9,2.5s-2,0.7-3.1,0.5S6.1,36,5.6,35s-0.7-2-0.5-3.1s0.9-2,1.8-2.5
	S9,28.7,10.1,29z"/>
<path class="st0" d="M32.4,47.5c0,1.3,0.5,2.6,1.3,3.7L27.8,57l2,1.8l5.9-5.9c1.7,1,3.8,1.3,5.8,0.6c1.9-0.7,3.4-2.2,4.1-4.1
	c0.7-1.9,0.5-4-0.5-5.8s-2.8-2.9-4.8-3.3c-2-0.3-4,0.3-5.6,1.6C33.2,43.5,32.4,45.4,32.4,47.5L32.4,47.5L32.4,47.5z M43.3,47.1
	c0,1.1-0.3,2.1-1.1,2.9c-0.7,0.8-1.8,1.3-2.8,1.3s-2.1-0.3-2.9-1.1s-1.3-1.8-1.3-2.8s0.3-2.1,1.1-2.9s1.8-1.3,2.8-1.3
	s2.1,0.3,2.9,1.1S43.2,46,43.3,47.1z"/>
<path class="st0" d="M27.1,54.5c-1.3-0.3-2.6-0.2-3.9,0.2L13.4,38l-2.3,1.4l9.8,16.8c-1.5,1.4-2.3,3.3-2.2,5.4
	c0.1,2,1.1,3.9,2.8,5.1c1.6,1.2,3.7,1.6,5.7,1.1c2-0.5,3.6-1.9,4.4-3.7c0.9-1.8,0.8-4,0-5.8C30.8,56.4,29.1,55,27.1,54.5L27.1,54.5
	L27.1,54.5z M24.5,65.1c-1-0.3-2-0.9-2.5-1.8c-0.6-0.9-0.7-2-0.5-3.1s0.9-2,1.9-2.5s2-0.7,3.1-0.5s2,0.9,2.5,1.8s0.7,2,0.5,3.1
	s-0.9,1.9-1.9,2.5S25.6,65.3,24.5,65.1z"/>
<path class="st0" d="M55.9,54c-1.3,0.1-2.6,0.6-3.6,1.4l-8.5-7l-1.8,2l8.5,7c-1,1.8-1.1,3.9-0.4,5.8s2.3,3.3,4.2,4
	c1.9,0.6,4,0.4,5.7-0.7c1.7-1.1,2.8-2.9,3.1-4.9c0.2-2-0.4-4-1.8-5.5C59.9,54.6,57.9,53.9,55.9,54L55.9,54L55.9,54z M56.7,64.8
	c-1.1,0.1-2.1-0.3-3-1c-0.8-0.7-1.3-1.7-1.4-2.8s0.3-2.1,1-3s1.7-1.3,2.8-1.4s2.1,0.3,3,1s1.3,1.7,1.4,2.8s-0.3,2.1-1,3
	C58.8,64.2,57.8,64.7,56.7,64.8z"/>
<path class="st0" d="M92.2,60.4c-1.3-0.3-2.7-0.1-3.9,0.4L76.9,42l-2.3,1.5l11.5,18.8c-1.4,1.4-2.1,3.4-1.9,5.5c0.2,2,1.3,3.8,3,5
	c1.7,1.1,3.8,1.4,5.7,0.8c1.9-0.6,3.5-2,4.3-3.9s0.7-4-0.3-5.8C95.9,62.1,94.2,60.8,92.2,60.4L92.2,60.4L92.2,60.4z M90.1,71.1
	c-1.1-0.2-2-0.8-2.6-1.7c-0.6-0.9-0.8-2-0.6-3.1s0.8-2,1.7-2.6s2-0.8,3.1-0.6s2,0.8,2.6,1.7c0.6,0.9,0.8,2,0.6,3.1s-0.8,2-1.7,2.6
	S91.2,71.3,90.1,71.1z"/>
<path class="st0" d="M65.6,39.9c0.2,1.3,0.7,2.5,1.6,3.5l-9.7,12.5l2.2,1.7l9.7-12.5c1.8,0.9,3.9,0.9,5.8,0.1
	c1.8-0.8,3.2-2.5,3.7-4.4c0.5-2,0.1-4-1.1-5.7c-1.2-1.6-3.1-2.7-5.1-2.8s-4,0.7-5.4,2.1S65.3,37.9,65.6,39.9L65.6,39.9L65.6,39.9z
	 M76.3,38.5c0.1,1.1-0.2,2.2-0.8,3c-0.7,0.9-1.6,1.4-2.7,1.6s-2.2-0.2-3-0.8s-1.4-1.6-1.6-2.7s0.2-2.2,0.8-3s1.6-1.4,2.7-1.6
	s2.2,0.2,3,0.8S76.2,37.4,76.3,38.5z"/>
</svg>
