<?xml version="1.0" encoding="utf-8"?>
<!-- Generator: Adobe Illustrator 26.3.1, SVG Export Plug-In . SVG Version: 6.00 Build 0)  -->
<svg version="1.1" id="Layer_1" xmlns="http://www.w3.org/2000/svg" xmlns:xlink="http://www.w3.org/1999/xlink" x="0px" y="0px"
	 viewBox="0 0 100 100" style="enable-background:new 0 0 100 100;" xml:space="preserve">
<style type="text/css">
	.st0{fill:#B252B0;}
</style>
<path class="st0" d="M41.4,33.3c-0.8,0-1.4-0.6-1.4-1.4v-8.9H33c-0.8,0-1.4-0.6-1.4-1.4S32.2,20,33,20h8.3c0.4,0,0.8,0.1,1,0.4
	s0.4,0.6,0.4,1v10.4c0,0.4-0.2,0.8-0.4,1S41.7,33.3,41.4,33.3z"/>
<path class="st0" d="M58.6,33.3c-0.8,0-1.4-0.6-1.4-1.4V21.5c0-0.8,0.6-1.4,1.4-1.4H67c0.8,0,1.4,0.6,1.4,1.4s-0.6,1.4-1.4,1.4h-6.9
	v8.9c0,0.4-0.2,0.8-0.4,1S59,33.3,58.6,33.3z"/>
<path class="st0" d="M50,33c-0.8,0-1.4-0.6-1.4-1.4V16.9c0-0.8,0.6-1.4,1.4-1.4s1.4,0.6,1.4,1.4v14.7c0,0.4-0.2,0.8-0.4,1
	S50.4,33,50,33z"/>
<path class="st0" d="M60.1,79.9h-1.4c-0.8,0-1.4-0.6-1.4-1.4V68.1c0-0.8,0.6-1.4,1.4-1.4s1.4,0.6,1.4,1.4v8.9c0.8,0,1.4,0.6,1.4,1.4
	S60.9,79.9,60.1,79.9z"/>
<path class="st0" d="M67.8,79.9h-2c-0.8,0-1.4-0.6-1.4-1.4s0.6-1.4,1.4-1.4h2c0.8,0,1.4,0.6,1.4,1.4S68.7,79.9,67.8,79.9z"/>
<path class="st0" d="M41.4,79.9H33c-0.8,0-1.4-0.6-1.4-1.4s0.6-1.4,1.4-1.4h6.9v-8.9c0-0.8,0.6-1.4,1.4-1.4s1.4,0.6,1.4,1.4v10.4
	C42.8,79.3,42.2,79.9,41.4,79.9z"/>
<path class="st0" d="M50,84.6c-0.8,0-1.4-0.6-1.4-1.4V67.5c0-0.8,0.6-1.4,1.4-1.4s1.4,0.6,1.4,1.4v15.6c0,0.4-0.2,0.8-0.4,1
	S50.4,84.6,50,84.6z"/>
<path class="st0" d="M61.7,68.4H38.4c-1.9,0-3.7-0.7-5-2.1c-1.3-1.3-2.1-3.1-2.1-5v-8.5c0-0.8,0.6-1.4,1.4-1.4s1.4,0.6,1.4,1.4v8.5
	c0,1.1,0.5,2.2,1.2,3s1.8,1.2,3,1.2h23.3c1.1,0,2.2-0.4,3-1.2s1.2-1.8,1.2-3V38.1c0-1.1-0.4-2.2-1.2-3s-1.8-1.2-3-1.2H38.4
	c-1.1,0-2.2,0.5-3,1.2s-1.2,1.8-1.2,3v1.9c0,0.8-0.6,1.4-1.4,1.4s-1.4-0.6-1.4-1.4v-1.9c0-1.9,0.7-3.7,2.1-5c1.3-1.3,3.1-2.1,5-2.1
	h23.3c1.9,0,3.7,0.7,5,2.1c1.3,1.3,2.1,3.1,2.1,5v23.3c0,1.9-0.7,3.7-2.1,5S63.5,68.4,61.7,68.4C61.7,68.4,61.7,68.4,61.7,68.4z"/>
<path class="st0" d="M32.7,48.6c-0.8,0-1.4-0.6-1.4-1.4v-1.4c0-0.8,0.6-1.4,1.4-1.4c0.8,0,1.4,0.6,1.4,1.4v1.4c0,0.4-0.2,0.8-0.4,1
	S33.1,48.6,32.7,48.6z"/>
<path class="st0" d="M42.9,47.5c-0.4,0-0.8-0.2-1.1-0.5c-0.2-0.3-0.4-0.7-0.4-1c0-0.4,0.2-0.7,0.5-1c2.2-2,5.1-3,8.1-3
	s5.8,1.1,8.1,3c0.6,0.5,0.7,1.4,0.2,2c-0.5,0.6-1.4,0.7-2,0.2c-1.7-1.5-3.9-2.3-6.2-2.3s-4.5,0.8-6.2,2.3
	C43.6,47.3,43.2,47.5,42.9,47.5C42.9,47.5,42.9,47.5,42.9,47.5z"/>
<path class="st0" d="M44.7,51.5c-0.4,0-0.8-0.2-1.1-0.5c-0.5-0.6-0.5-1.5,0.1-2c1.7-1.5,4-2.4,6.3-2.4s4.5,0.8,6.3,2.4
	c0.3,0.2,0.5,0.6,0.5,1c0,0.4-0.1,0.8-0.3,1.1c-0.3,0.3-0.6,0.5-1,0.5s-0.8-0.1-1.1-0.4c-1.2-1-2.7-1.6-4.3-1.7
	c-1.6,0-3.2,0.6-4.4,1.7C45.4,51.4,45,51.5,44.7,51.5C44.7,51.5,44.7,51.5,44.7,51.5z"/>
<path class="st0" d="M50,58.3c-0.9,0-1.7-0.3-2.3-1s-0.9-1.4-0.9-2.3c0-0.9,0.3-1.7,1-2.3s1.4-0.9,2.3-0.9s1.7,0.3,2.3,1
	c0.6,0.6,0.9,1.4,0.9,2.3c0,0.8-0.3,1.7-1,2.3S50.9,58.3,50,58.3L50,58.3L50,58.3z M50,54.7c-0.2,0-0.3,0.2-0.3,0.3
	c0,0.4,0.7,0.4,0.7,0l0,0c0-0.1,0-0.2-0.1-0.2C50.2,54.8,50.1,54.7,50,54.7L50,54.7L50,54.7z"/>
<path class="st0" d="M50,63.6c-3.7,0-7.2-1.5-9.8-4.1c-2.6-2.6-4.1-6.1-4.1-9.8s1.5-7.2,4.1-9.8c2.6-2.6,6.1-4.1,9.8-4.1
	s7.2,1.5,9.8,4.1c2.6,2.6,4.1,6.1,4.1,9.8s-1.5,7.2-4.1,9.8C57.2,62.2,53.7,63.6,50,63.6L50,63.6z M50,38.7c-2.9,0-5.7,1.2-7.8,3.2
	S39,46.8,39,49.7s1.2,5.7,3.2,7.8s4.9,3.2,7.8,3.2s5.7-1.2,7.8-3.2s3.2-4.9,3.2-7.8c0-2.9-1.2-5.7-3.2-7.8
	C55.7,39.9,52.9,38.7,50,38.7L50,38.7L50,38.7z"/>
<path class="st0" d="M28.1,27c-1.5,0-2.8-0.6-3.9-1.6s-1.6-2.4-1.6-3.9s0.6-2.8,1.6-3.9s2.4-1.6,3.9-1.6s2.8,0.6,3.9,1.6
	s1.6,2.4,1.6,3.9S33,24.3,32,25.4S29.6,27,28.1,27z M28.1,18.9c-0.7,0-1.4,0.3-1.8,0.8s-0.8,1.1-0.8,1.8s0.3,1.4,0.8,1.8
	s1.1,0.8,1.8,0.8s1.4-0.3,1.8-0.8s0.8-1.1,0.8-1.8c0-0.7-0.3-1.3-0.8-1.8C29.5,19.2,28.8,18.9,28.1,18.9L28.1,18.9z"/>
<path class="st0" d="M50,17.8c-1.5,0-2.8-0.6-3.9-1.6s-1.6-2.4-1.6-3.9s0.6-2.8,1.6-3.9s2.4-1.6,3.9-1.6s2.8,0.6,3.9,1.6
	s1.6,2.4,1.6,3.9s-0.6,2.8-1.6,3.9S51.4,17.8,50,17.8z M50,9.7c-0.7,0-1.3,0.3-1.8,0.8s-0.8,1.1-0.8,1.8s0.3,1.4,0.8,1.8
	c0.5,0.5,1.2,0.8,1.8,0.8s1.3-0.3,1.8-0.8s0.8-1.1,0.8-1.8c0-0.7-0.3-1.3-0.8-1.8C51.3,10,50.7,9.7,50,9.7L50,9.7z"/>
<path class="st0" d="M71.9,84c-1.4,0-2.8-0.6-3.9-1.6s-1.6-2.4-1.6-3.9s0.6-2.8,1.6-3.9s2.4-1.6,3.9-1.6s2.8,0.6,3.9,1.6
	c1,1,1.6,2.4,1.6,3.9s-0.6,2.8-1.6,3.9S73.3,84,71.9,84z M71.9,75.9c-0.7,0-1.3,0.3-1.8,0.8s-0.8,1.2-0.8,1.8s0.3,1.3,0.8,1.8
	s1.2,0.8,1.8,0.8s1.3-0.3,1.8-0.8s0.8-1.2,0.8-1.8c0-0.7-0.3-1.3-0.8-1.8C73.2,76.2,72.6,75.9,71.9,75.9L71.9,75.9z"/>
<path class="st0" d="M50,93.2c-1.5,0-2.8-0.6-3.9-1.6s-1.6-2.4-1.6-3.9s0.6-2.8,1.6-3.9s2.4-1.6,3.9-1.6s2.8,0.6,3.9,1.6
	s1.6,2.4,1.6,3.9s-0.6,2.8-1.6,3.9S51.4,93.2,50,93.2z M50,85.1c-0.7,0-1.3,0.3-1.8,0.8s-0.8,1.2-0.8,1.8s0.3,1.3,0.8,1.8
	s1.2,0.8,1.8,0.8s1.3-0.3,1.8-0.8s0.8-1.2,0.8-1.8c0-0.7-0.3-1.3-0.8-1.8C51.3,85.4,50.7,85.1,50,85.1L50,85.1z"/>
<path class="st0" d="M71.9,27c-1.4,0-2.8-0.6-3.9-1.6s-1.6-2.4-1.6-3.9s0.6-2.8,1.6-3.9s2.4-1.6,3.9-1.6s2.8,0.6,3.9,1.6
	c1,1,1.6,2.4,1.6,3.9s-0.6,2.8-1.6,3.9S73.3,27,71.9,27z M71.9,18.9c-0.7,0-1.3,0.3-1.8,0.8s-0.8,1.1-0.8,1.8s0.3,1.4,0.8,1.8
	s1.2,0.8,1.8,0.8s1.3-0.3,1.8-0.8s0.8-1.1,0.8-1.8c0-0.7-0.3-1.3-0.8-1.8C73.2,19.2,72.6,18.9,71.9,18.9L71.9,18.9z"/>
<path class="st0" d="M28.1,84c-1.5,0-2.8-0.6-3.9-1.6s-1.6-2.4-1.6-3.9s0.6-2.8,1.6-3.9s2.4-1.6,3.9-1.6s2.8,0.6,3.9,1.6
	s1.6,2.4,1.6,3.9S33,81.3,32,82.4S29.6,84,28.1,84z M28.1,75.9c-0.7,0-1.4,0.3-1.8,0.8s-0.8,1.2-0.8,1.8s0.3,1.3,0.8,1.8
	s1.1,0.8,1.8,0.8s1.4-0.3,1.8-0.8s0.8-1.2,0.8-1.8c0-0.7-0.3-1.3-0.8-1.8C29.5,76.2,28.8,75.9,28.1,75.9L28.1,75.9z"/>
</svg>
