<?xml version="1.0" encoding="utf-8"?>
<!-- Generator: Adobe Illustrator 26.3.1, SVG Export Plug-In . SVG Version: 6.00 Build 0)  -->
<svg version="1.1" id="Layer_1" xmlns="http://www.w3.org/2000/svg" xmlns:xlink="http://www.w3.org/1999/xlink" x="0px" y="0px"
	 viewBox="0 0 100 100" style="enable-background:new 0 0 100 100;" xml:space="preserve">
<style type="text/css">
	.st0{fill:#A98234;}
</style>
<path class="st0" d="M63.6,49.1c0.7,0,1.2-0.5,1.2-1.2v-2.1c0-0.7-0.5-1.2-1.2-1.2s-1.2,0.5-1.2,1.2v2.1
	C62.3,48.6,63,49.1,63.6,49.1z"/>
<path class="st0" d="M69.4,49.1c0.7,0,1.2-0.5,1.2-1.2v-2.1c0-0.7-0.5-1.2-1.2-1.2s-1.2,0.5-1.2,1.2v2.1
	C68.2,48.6,68.7,49.1,69.4,49.1z"/>
<path class="st0" d="M75.2,49.1c0.7,0,1.2-0.5,1.2-1.2v-2.1c0-0.7-0.5-1.2-1.2-1.2S74,45,74,45.8v2.1C74,48.6,74.6,49.1,75.2,49.1z"
	/>
<path class="st0" d="M63.6,57.6c0.7,0,1.2-0.5,1.2-1.2v-2.1c0-0.7-0.5-1.2-1.2-1.2s-1.2,0.5-1.2,1.2v2.1
	C62.3,57.1,63,57.6,63.6,57.6z"/>
<path class="st0" d="M69.4,57.6c0.7,0,1.2-0.5,1.2-1.2v-2.1c0-0.7-0.5-1.2-1.2-1.2s-1.2,0.5-1.2,1.2v2.1
	C68.2,57.1,68.7,57.6,69.4,57.6z"/>
<path class="st0" d="M75.2,57.6c0.7,0,1.2-0.5,1.2-1.2v-2.1c0-0.7-0.5-1.2-1.2-1.2S74,53.6,74,54.3v2.1C74,57.1,74.6,57.6,75.2,57.6
	z"/>
<path class="st0" d="M63.6,66.2c0.7,0,1.2-0.5,1.2-1.2v-2.1c0-0.7-0.5-1.2-1.2-1.2s-1.2,0.5-1.2,1.2V65C62.3,65.6,63,66.2,63.6,66.2
	z"/>
<path class="st0" d="M69.4,66.2c0.7,0,1.2-0.5,1.2-1.2v-2.1c0-0.7-0.5-1.2-1.2-1.2s-1.2,0.5-1.2,1.2V65
	C68.2,65.6,68.7,66.2,69.4,66.2z"/>
<path class="st0" d="M75.2,66.2c0.7,0,1.2-0.5,1.2-1.2v-2.1c0-0.7-0.5-1.2-1.2-1.2S74,62.2,74,62.9V65C74,65.6,74.6,66.2,75.2,66.2z
	"/>
<path class="st0" d="M63.6,74.6c0.7,0,1.2-0.5,1.2-1.2v-2.1c0-0.7-0.5-1.2-1.2-1.2s-1.2,0.5-1.2,1.2v2.1
	C62.3,74.2,63,74.6,63.6,74.6z"/>
<path class="st0" d="M69.4,74.6c0.7,0,1.2-0.5,1.2-1.2v-2.1c0-0.7-0.5-1.2-1.2-1.2s-1.2,0.5-1.2,1.2v2.1
	C68.2,74.2,68.7,74.6,69.4,74.6z"/>
<path class="st0" d="M75.2,74.6c0.7,0,1.2-0.5,1.2-1.2v-2.1c0-0.7-0.5-1.2-1.2-1.2S74,70.6,74,71.3v2.1C74,74.2,74.6,74.6,75.2,74.6
	z"/>
<path class="st0" d="M63.6,83.2c0.7,0,1.2-0.5,1.2-1.2v-2.1c0-0.7-0.5-1.2-1.2-1.2s-1.2,0.5-1.2,1.2V82C62.3,82.6,63,83.2,63.6,83.2
	z"/>
<path class="st0" d="M69.4,83.2c0.7,0,1.2-0.5,1.2-1.2v-2.1c0-0.7-0.5-1.2-1.2-1.2s-1.2,0.5-1.2,1.2V82
	C68.2,82.6,68.7,83.2,69.4,83.2z"/>
<path class="st0" d="M75.2,83.2c0.7,0,1.2-0.5,1.2-1.2v-2.1c0-0.7-0.5-1.2-1.2-1.2S74,79.2,74,79.9V82C74,82.6,74.6,83.2,75.2,83.2z
	"/>
<path class="st0" d="M25.7,44.6c-0.7,0-1.2,0.5-1.2,1.2v2.1c0,0.7,0.5,1.2,1.2,1.2s1.2-0.5,1.2-1.2v-2.1
	C26.9,45.2,26.4,44.6,25.7,44.6C25.7,44.6,25.7,44.6,25.7,44.6z"/>
<path class="st0" d="M31.5,44.6c-0.7,0-1.2,0.5-1.2,1.2v2.1c0,0.7,0.5,1.2,1.2,1.2s1.2-0.5,1.2-1.2v-2.1
	C32.8,45.2,32.2,44.6,31.5,44.6C31.5,44.6,31.5,44.6,31.5,44.6z"/>
<path class="st0" d="M37.4,44.6c-0.7,0-1.2,0.5-1.2,1.2v2.1c0,0.7,0.5,1.2,1.2,1.2s1.2-0.5,1.2-1.2v-2.1
	C38.6,45.2,38,44.6,37.4,44.6C37.4,44.6,37.4,44.6,37.4,44.6z"/>
<path class="st0" d="M25.7,53.1c-0.7,0-1.2,0.5-1.2,1.2v2.1c0,0.7,0.5,1.2,1.2,1.2s1.2-0.5,1.2-1.2v-2.1
	C26.9,53.6,26.4,53.1,25.7,53.1z"/>
<path class="st0" d="M31.5,53.1c-0.7,0-1.2,0.5-1.2,1.2v2.1c0,0.7,0.5,1.2,1.2,1.2s1.2-0.5,1.2-1.2v-2.1
	C32.8,53.6,32.2,53.1,31.5,53.1z"/>
<path class="st0" d="M37.4,53.1c-0.7,0-1.2,0.5-1.2,1.2v2.1c0,0.7,0.5,1.2,1.2,1.2s1.2-0.5,1.2-1.2v-2.1
	C38.6,53.6,38,53.1,37.4,53.1z"/>
<path class="st0" d="M25.7,61.7c-0.7,0-1.2,0.5-1.2,1.2V65c0,0.7,0.5,1.2,1.2,1.2s1.2-0.5,1.2-1.2v-2.1
	C26.9,62.2,26.4,61.7,25.7,61.7z"/>
<path class="st0" d="M31.5,61.7c-0.7,0-1.2,0.5-1.2,1.2V65c0,0.7,0.5,1.2,1.2,1.2s1.2-0.5,1.2-1.2v-2.1
	C32.8,62.2,32.2,61.7,31.5,61.7z"/>
<path class="st0" d="M37.4,61.7c-0.7,0-1.2,0.5-1.2,1.2V65c0,0.7,0.5,1.2,1.2,1.2s1.2-0.5,1.2-1.2v-2.1C38.6,62.2,38,61.7,37.4,61.7
	z"/>
<path class="st0" d="M25.7,70.1c-0.7,0-1.2,0.5-1.2,1.2v2.1c0,0.7,0.5,1.2,1.2,1.2s1.2-0.5,1.2-1.2v-2.1
	C26.9,70.7,26.4,70.1,25.7,70.1z"/>
<path class="st0" d="M31.5,70.1c-0.7,0-1.2,0.5-1.2,1.2v2.1c0,0.7,0.5,1.2,1.2,1.2s1.2-0.5,1.2-1.2v-2.1
	C32.8,70.7,32.2,70.1,31.5,70.1z"/>
<path class="st0" d="M37.4,70.1c-0.7,0-1.2,0.5-1.2,1.2v2.1c0,0.7,0.5,1.2,1.2,1.2s1.2-0.5,1.2-1.2v-2.1
	C38.6,70.7,38,70.1,37.4,70.1z"/>
<path class="st0" d="M25.7,78.7c-0.7,0-1.2,0.5-1.2,1.2V82c0,0.7,0.5,1.2,1.2,1.2s1.2-0.5,1.2-1.2v-2.1
	C26.9,79.2,26.4,78.7,25.7,78.7z"/>
<path class="st0" d="M31.5,78.7c-0.7,0-1.2,0.5-1.2,1.2V82c0,0.7,0.5,1.2,1.2,1.2s1.2-0.5,1.2-1.2v-2.1
	C32.8,79.2,32.2,78.7,31.5,78.7z"/>
<path class="st0" d="M37.4,78.7c-0.7,0-1.2,0.5-1.2,1.2V82c0,0.7,0.5,1.2,1.2,1.2s1.2-0.5,1.2-1.2v-2.1C38.6,79.2,38,78.7,37.4,78.7
	z"/>
<path class="st0" d="M87.3,93.2c0.7,0,1.2-0.5,1.2-1.2s-0.5-1.2-1.2-1.2h-3.7V40.6c0-0.5-0.2-0.9-0.7-1.1L57.2,27.9V7.9
	c0-0.7-0.5-1.2-1.2-1.2H32.4c-0.7,0-1.2,0.5-1.2,1.2v29.6H18.5c-0.7,0-1.2,0.5-1.2,1.2v52.2h-4.5c-0.7,0-1.2,0.5-1.2,1.2
	s0.5,1.2,1.2,1.2h74.6L87.3,93.2L87.3,93.2z M81.2,41.5v49.4H57.6V30.7L81.2,41.5z M33.6,9.1h21.2v81.7h-9v-7.7h5
	c0.7,0,1.2-0.5,1.2-1.2s-0.5-1.2-1.2-1.2h-5v-7.1h5c0.7,0,1.2-0.5,1.2-1.2s-0.5-1.2-1.2-1.2h-5V64h5c0.7,0,1.2-0.5,1.2-1.2
	s-0.5-1.2-1.2-1.2h-5v-7.1h5c0.7,0,1.2-0.5,1.2-1.2S51.5,52,50.7,52h-5v-7h5c0.7,0,1.2-0.5,1.2-1.2s-0.5-1.2-1.2-1.2h-5v-4
	c0-0.7-0.5-1.2-1.2-1.2H33.6C33.6,37.4,33.6,9.1,33.6,9.1z M19.7,39.8h23.6v51H19.7L19.7,39.8L19.7,39.8z"/>
<path class="st0" d="M37.4,16.6h13.5c0.7,0,1.2-0.5,1.2-1.2s-0.5-1.2-1.2-1.2H37.4c-0.7,0-1.2,0.5-1.2,1.2S36.7,16.6,37.4,16.6z"/>
<path class="st0" d="M37.4,26h13.5c0.7,0,1.2-0.5,1.2-1.2s-0.5-1.2-1.2-1.2H37.4c-0.7,0-1.2,0.5-1.2,1.2S36.7,26,37.4,26z"/>
<path class="st0" d="M52,34.3c0-0.7-0.5-1.2-1.2-1.2H37.3c-0.7,0-1.2,0.5-1.2,1.2s0.5,1.2,1.2,1.2h13.5C51.5,35.5,52,35,52,34.3z"/>
</svg>
