<?xml version="1.0" encoding="utf-8"?>
<!-- Generator: Adobe Illustrator 26.3.1, SVG Export Plug-In . SVG Version: 6.00 Build 0)  -->
<svg version="1.1" id="Layer_1" xmlns="http://www.w3.org/2000/svg" xmlns:xlink="http://www.w3.org/1999/xlink" x="0px" y="0px"
	 viewBox="0 0 100 100" style="enable-background:new 0 0 100 100;" xml:space="preserve">
<style type="text/css">
	.st0{fill:#3C3CA2;}
</style>
<path class="st0" d="M34.9,31.1v37.7c0,1.3,0.5,2.6,1.5,3.6c0.9,0.9,2.2,1.5,3.6,1.5h20.1c1.3,0,2.6-0.5,3.6-1.5
	c0.9-0.9,1.5-2.2,1.5-3.6V31.1c0-1.3-0.5-2.6-1.5-3.6c-0.9-0.9-2.2-1.5-3.6-1.5H39.9c-1.3,0-2.6,0.5-3.6,1.5
	C35.4,28.5,34.9,29.8,34.9,31.1z M39.9,28.6h20.1c0.7,0,1.3,0.3,1.8,0.7s0.7,1.1,0.7,1.8H37.4c0-0.7,0.3-1.3,0.7-1.8
	S39.3,28.6,39.9,28.6L39.9,28.6z M37.4,33.6h25.2v32.7H37.4V33.6L37.4,33.6z M62.6,68.9c0,0.7-0.3,1.3-0.7,1.8s-1.1,0.7-1.8,0.7
	H39.9c-0.7,0-1.3-0.3-1.8-0.7s-0.7-1.1-0.7-1.8H62.6L62.6,68.9z"/>
<path class="st0" d="M51.3,54.4c0,0.7-0.6,1.3-1.3,1.3s-1.3-0.6-1.3-1.3s0.6-1.3,1.3-1.3S51.3,53.7,51.3,54.4"/>
<path class="st0" d="M50,43.1c-3.2,0-6.2,1.5-8.1,4.1l2,1.5c1.4-1.9,3.7-3.1,6.1-3.1s4.7,1.1,6.1,3.1l2-1.5
	C56.2,44.6,53.2,43.1,50,43.1z"/>
<path class="st0" d="M50,48.1c-1.6,0-3.1,0.8-4.1,2.1l2,1.5l0,0c0.5-0.6,1.2-1,2-1s1.5,0.4,2,1l2-1.5l0,0
	C53.1,48.9,51.6,48.1,50,48.1L50,48.1z"/>
<path class="st0" d="M82.7,11c-1.5,0-3,0.6-4.1,1.6s-1.9,2.4-2.1,3.9c-0.2,1.5,0.2,3,1,4.3L68,30.2l1.8,1.8l9.5-9.5
	c1.7,1.1,3.7,1.4,5.6,0.7s3.3-2.2,3.9-4.1c0.6-1.9,0.2-4-1-5.6S84.7,11,82.7,11L82.7,11L82.7,11z M82.7,21.1c-1,0-2-0.4-2.7-1.1
	s-1.1-1.7-1.1-2.7s0.4-2,1.1-2.7s1.7-1.1,2.7-1.1s2,0.4,2.7,1.1s1.1,1.7,1.1,2.7s-0.4,2-1.1,2.7S83.7,21.1,82.7,21.1z"/>
<path class="st0" d="M82.7,76.4c-1.2,0-2.4,0.4-3.5,1.1L69.8,68L68,69.8l9.5,9.5c-1,1.6-1.3,3.5-0.8,5.3c0.6,1.8,1.9,3.2,3.6,4
	s3.7,0.6,5.4-0.3c1.7-0.9,2.8-2.5,3.2-4.3s-0.1-3.8-1.3-5.2S84.6,76.4,82.7,76.4L82.7,76.4L82.7,76.4z M82.7,86.5
	c-1,0-2-0.4-2.7-1.1s-1.1-1.7-1.1-2.7s0.4-2,1.1-2.7s1.7-1.1,2.7-1.1s2,0.4,2.7,1.1s1.1,1.7,1.1,2.7s-0.4,2-1.1,2.7
	S83.7,86.5,82.7,86.5z"/>
<path class="st0" d="M78.9,55c1.3,0,2.5-0.5,3.4-1.3s1.5-2,1.6-3.3s-0.3-2.5-1-3.5S81,45.3,79.8,45c-1.2-0.2-2.5,0-3.6,0.7
	c-1.1,0.7-1.8,1.7-2.1,3h-6.5v2.5h6.5c0.3,1.1,0.9,2,1.8,2.7C76.7,54.6,77.8,55,78.9,55L78.9,55L78.9,55z M78.9,47.5
	c0.7,0,1.3,0.3,1.8,0.7s0.7,1.1,0.7,1.8s-0.3,1.3-0.7,1.8s-1.1,0.7-1.8,0.7s-1.3-0.3-1.8-0.7s-0.7-1.1-0.7-1.8s0.3-1.3,0.7-1.8
	S78.3,47.5,78.9,47.5z"/>
<path class="st0" d="M17.3,23.6c1.2,0,2.4-0.4,3.5-1l9.5,9.5l1.8-1.8l-9.5-9.5c1-1.6,1.3-3.5,0.8-5.3c-0.6-1.8-1.9-3.2-3.6-4
	c-1.7-0.7-3.7-0.6-5.4,0.3c-1.7,0.9-2.8,2.5-3.2,4.3s0.1,3.8,1.3,5.2C13.6,22.8,15.4,23.6,17.3,23.6L17.3,23.6L17.3,23.6z
	 M17.3,13.5c1,0,2,0.4,2.7,1.1c0.7,0.7,1.1,1.7,1.1,2.7s-0.4,2-1.1,2.7s-1.7,1.1-2.7,1.1s-2-0.4-2.7-1.1s-1.1-1.7-1.1-2.7
	s0.4-2,1.1-2.7S16.3,13.5,17.3,13.5z"/>
<path class="st0" d="M23.6,82.7c0-1.2-0.4-2.4-1-3.5l9.5-9.5L30.2,68l-9.5,9.5c-1.6-1-3.5-1.3-5.3-0.8c-1.8,0.6-3.2,1.9-4,3.6
	s-0.6,3.7,0.3,5.4c0.9,1.7,2.5,2.8,4.3,3.2s3.8-0.1,5.2-1.3C22.8,86.4,23.6,84.6,23.6,82.7L23.6,82.7L23.6,82.7z M13.5,82.7
	c0-1,0.4-2,1.1-2.7s1.7-1.1,2.7-1.1s2,0.4,2.7,1.1s1.1,1.7,1.1,2.7s-0.4,2-1.1,2.7s-1.7,1.1-2.7,1.1s-2-0.4-2.7-1.1
	S13.5,83.7,13.5,82.7z"/>
<path class="st0" d="M21.1,45c-1.3,0-2.5,0.5-3.4,1.3s-1.5,2-1.6,3.3s0.3,2.5,1,3.5s1.9,1.7,3.1,1.9c1.2,0.2,2.5,0,3.6-0.7
	c1.1-0.7,1.8-1.7,2.1-3h6.5v-2.5h-6.5c-0.3-1.1-0.9-2-1.8-2.7C23.2,45.4,22.2,45,21.1,45L21.1,45L21.1,45z M21.1,52.5
	c-0.7,0-1.3-0.3-1.8-0.7s-0.7-1.1-0.7-1.8s0.3-1.3,0.7-1.8s1.1-0.7,1.8-0.7s1.3,0.3,1.8,0.7s0.7,1.1,0.7,1.8s-0.3,1.3-0.7,1.8
	S21.7,52.5,21.1,52.5z"/>
<path class="st0" d="M48.7,76.4v2.7c-1.6,0.4-2.9,1.6-3.5,3.1s-0.3,3.3,0.6,4.6c0.9,1.3,2.5,2.2,4.1,2.2s3.2-0.8,4.1-2.2
	c0.9-1.3,1.2-3.1,0.6-4.6s-1.9-2.7-3.5-3.1v-2.7C51.3,76.4,48.7,76.4,48.7,76.4z M52.5,84c0,0.7-0.3,1.3-0.7,1.8s-1.1,0.7-1.8,0.7
	s-1.3-0.3-1.8-0.7s-0.7-1.1-0.7-1.8s0.3-1.3,0.7-1.8s1.1-0.7,1.8-0.7s1.3,0.3,1.8,0.7S52.5,83.3,52.5,84z"/>
<path class="st0" d="M51.3,23.6v-2.7c1.6-0.4,2.9-1.6,3.5-3.1c0.6-1.5,0.3-3.3-0.6-4.6S51.6,11,50,11s-3.2,0.8-4.1,2.2
	c-0.9,1.4-1.2,3.1-0.6,4.6s1.9,2.7,3.5,3.1v2.7C48.7,23.6,51.3,23.6,51.3,23.6z M47.5,16c0-0.7,0.3-1.3,0.7-1.8s1.1-0.7,1.8-0.7
	s1.3,0.3,1.8,0.7s0.7,1.1,0.7,1.8s-0.3,1.3-0.7,1.8s-1.1,0.7-1.8,0.7s-1.3-0.3-1.8-0.7S47.5,16.7,47.5,16z"/>
</svg>
