<svg xmlns="http://www.w3.org/2000/svg" viewBox="0 0 38.8 51.12"><defs><style>.cls-1{opacity:0.7;}.cls-2{fill:#d64541;}</style></defs><title>sd-red</title><g id="Layer_2" data-name="Layer 2"><g id="_002_Lines_Management" data-name="002 Lines Management"><g class="cls-1"><path class="cls-2" d="M36.86,2.47V0H34.92V2.47H31V0H29.1V2.47H27.16V6.6c0,2.44,2.1,4.47,4.85,4.87V46.59a3.17,3.17,0,0,1-3.39,2.88,3.17,3.17,0,0,1-3.4-2.88V4.53C25.22,2,22.83,0,19.89,0H15C12.09,0,9.7,2,9.7,4.53V5H5.82A2.72,2.72,0,0,0,2.91,7.42v4.24A3.45,3.45,0,0,0,0,14.84v5.77a1.81,1.81,0,0,0,1.94,1.65H3.88v14A2.53,2.53,0,0,0,5.82,38.6v3.45h1v3.3H9.7v5.77h1.94V45.35h2.91v-3.3h1V38.6a2.53,2.53,0,0,0,1.94-2.32v-18L18.4,15l0-7.62A2.72,2.72,0,0,0,15.52,5H11.64V4.53A3.17,3.17,0,0,1,15,1.65h4.85a3.17,3.17,0,0,1,3.39,2.88V46.59c0,2.5,2.39,4.53,5.34,4.53s5.33-2,5.33-4.53V11.47C36.7,11.08,38.8,9,38.8,6.6V2.47Zm-33,18.14H1.94V14.84a1.62,1.62,0,0,1,1-1.42v1.42l1,3.4ZM12.61,43.7H8.73V42.05h3.88Zm1-3.3H7.76V38.75h5.82ZM15.52,6.6a.91.91,0,0,1,1,.82v7.32l-.94,3.2,0,18.34a.91.91,0,0,1-1,.82h-1V19.79H11.64V37.1H9.7V19.79H7.76V37.1h-1a.91.91,0,0,1-1-.82V18.14l-1-3.4V7.42a.91.91,0,0,1,1-.82ZM33,9.89A3.62,3.62,0,0,1,29.1,6.6V4.12h7.76V6.6h0A3.62,3.62,0,0,1,33,9.89Z"/></g></g></g></svg>