<svg xmlns="http://www.w3.org/2000/svg" viewBox="0 0 31.19 30.12"><defs><style>.cls-1{fill:#fff;}</style></defs><title>tools-white</title><g id="Layer_2" data-name="Layer 2"><g id="_002_Lines_Management" data-name="002 Lines Management"><path class="cls-1" d="M5.27,25.17a2.07,2.07,0,0,0-2.77,0,1.84,1.84,0,0,0,0,2.66,2,2,0,0,0,1.39.55,2,2,0,0,0,1.38-.55A1.82,1.82,0,0,0,5.27,25.17ZM4.93,27.5a1.56,1.56,0,0,1-2.08,0,1.38,1.38,0,0,1,0-2,1.51,1.51,0,0,1,1-.41,1.53,1.53,0,0,1,1,.41A1.38,1.38,0,0,1,4.93,27.5Z"/><path class="cls-1" d="M29.4,11.07a.26.26,0,0,0-.35,0c-1.82,2.14-3.89,2.4-5.71,2.62a5.29,5.29,0,0,0-3.21,1.06L18.19,16.7a.22.22,0,0,0,0,.33.23.23,0,0,0,.17.07.24.24,0,0,0,.18-.07c.9-.9,1.59-1.59,1.94-1.92a5,5,0,0,1,2.92-.92c1.82-.23,4.09-.5,6-2.79A.23.23,0,0,0,29.4,11.07Z"/><path class="cls-1" d="M15.87,19.35a.25.25,0,0,0-.34,0l-5.24,5.25L6.2,28.72a3.37,3.37,0,0,1-4.62,0,3,3,0,0,1,0-4.44l1.61-1.47c1.51-1.36,3.79-3.43,6-5.52a.23.23,0,0,0,0-.34.25.25,0,0,0-.34,0c-2.25,2.09-4.53,4.15-6,5.52L1.23,24a3.51,3.51,0,0,0,0,5.1,3.86,3.86,0,0,0,5.31,0l4.11-4.11c1.63-1.65,3.53-3.55,5.23-5.25A.24.24,0,0,0,15.87,19.35Z"/><path class="cls-1" d="M16.71,4.37a.23.23,0,0,0-.08-.3.25.25,0,0,0-.34.07c-.09.12-.09.3-.07,1.16A12.43,12.43,0,0,1,15.74,10a2.48,2.48,0,0,1-.33.48.23.23,0,0,0,.05.33.3.3,0,0,0,.15.05.23.23,0,0,0,.19-.09,3.4,3.4,0,0,0,.39-.58,12.81,12.81,0,0,0,.52-4.86A8.85,8.85,0,0,1,16.71,4.37Z"/><path class="cls-1" d="M29.43,1.65a.3.3,0,0,0-.2-.08.23.23,0,0,0-.19.1L25.71,6.48l-3.63.1a.23.23,0,0,0-.23.24.24.24,0,0,0,.25.23l3.75-.11a.25.25,0,0,0,.2-.1l3.2-4.63a7.76,7.76,0,0,1,1.21,2.5,7.05,7.05,0,0,1-1.41,6.4.23.23,0,0,0,.05.33.24.24,0,0,0,.14.05.23.23,0,0,0,.2-.1A7.72,7.72,0,0,0,29.43,1.65Z"/><path class="cls-1" d="M24.43.14A.26.26,0,0,0,24.24,0c-.16,0-3.94-.33-6.82,3.82a.23.23,0,0,0,.07.32.24.24,0,0,0,.34-.06,7.7,7.7,0,0,1,6-3.61l-2.34,4a.23.23,0,0,0,.05.29l1.55,1.42a.23.23,0,0,0,.17.07.29.29,0,0,0,.18-.07.24.24,0,0,0,0-.34L22,4.55,24.42.36A.22.22,0,0,0,24.43.14Z"/><path class="cls-1" d="M22.2,6.6,16.6,4.05a.26.26,0,0,0-.33.12.23.23,0,0,0,.12.31L22,7a.17.17,0,0,0,.1,0,.24.24,0,0,0,.22-.14A.22.22,0,0,0,22.2,6.6Z"/><path class="cls-1" d="M21.76,4.62a.25.25,0,0,0-.34-.06l-.84.58a.23.23,0,0,0,.14.42.28.28,0,0,0,.15,0L21.71,5A.23.23,0,0,0,21.76,4.62Z"/><path class="cls-1" d="M21.86,8.24l-3.31-.87a.28.28,0,0,0-.18,0,.24.24,0,0,0-.12.14l-.84,3a1.88,1.88,0,0,0,1.37,2.31,2.32,2.32,0,0,0,.52.07,2,2,0,0,0,1.89-1.39l.84-3A.24.24,0,0,0,21.86,8.24Zm-1.14,3.12a1.51,1.51,0,0,1-1.81,1,1.42,1.42,0,0,1-1-1.74l.78-2.72,2.83.75Z"/><path class="cls-1" d="M21.13,9l-2.36-.62a.24.24,0,0,0-.3.16.23.23,0,0,0,.17.29L21,9.48h.06a.25.25,0,0,0,.24-.17A.23.23,0,0,0,21.13,9Z"/><path class="cls-1" d="M20.87,9.93l-2.36-.62a.25.25,0,0,0-.3.17.24.24,0,0,0,.17.29l2.36.62h.07a.24.24,0,0,0,.23-.18A.24.24,0,0,0,20.87,9.93Z"/><path class="cls-1" d="M19.42,8.1a.24.24,0,0,0-.33.09l-1,1.69a.23.23,0,0,0,.09.32.27.27,0,0,0,.12,0,.25.25,0,0,0,.22-.12l1-1.69A.23.23,0,0,0,19.42,8.1Z"/><path class="cls-1" d="M20.37,8.35a.23.23,0,0,0-.33.09l-1,1.69a.23.23,0,0,0,.09.32.27.27,0,0,0,.12,0,.26.26,0,0,0,.21-.12l1-1.69A.22.22,0,0,0,20.37,8.35Z"/><path class="cls-1" d="M21.31,8.59a.26.26,0,0,0-.33.09l-1,1.69a.22.22,0,0,0,.09.32.18.18,0,0,0,.12,0,.27.27,0,0,0,.22-.11l1-1.69A.25.25,0,0,0,21.31,8.59Z"/><path class="cls-1" d="M20,11.17l-1.42-.37a.24.24,0,0,0-.3.16.24.24,0,0,0,.17.29l1.42.37h.06a.25.25,0,0,0,.24-.17A.23.23,0,0,0,20,11.17Z"/><path class="cls-1" d="M10.21,17.87a.25.25,0,0,0-.34,0L4,23.4a.23.23,0,0,0,0,.33.24.24,0,0,0,.18.07.23.23,0,0,0,.17-.07l5.86-5.53A.22.22,0,0,0,10.21,17.87Z"/><path class="cls-1" d="M12.89,20.29a.26.26,0,0,0-.35,0L6.78,26.07a.24.24,0,0,0,0,.34.27.27,0,0,0,.17.06.26.26,0,0,0,.18-.07l5.75-5.77A.24.24,0,0,0,12.89,20.29Z"/><path class="cls-1" d="M6.42,24.06a2.41,2.41,0,0,0-2.32-.72.23.23,0,0,0-.15.3.25.25,0,0,0,.31.15,1.9,1.9,0,0,1,1.81.6,1.83,1.83,0,0,1,.66,1.78.22.22,0,0,0,.16.29H7a.24.24,0,0,0,.23-.16A2.25,2.25,0,0,0,6.42,24.06Z"/><path class="cls-1" d="M16,12.56,5.2,1.76a1.26,1.26,0,0,0-1.73,0l-3.11,3A1.15,1.15,0,0,0,0,5.58a1.16,1.16,0,0,0,.35.83l10.76,10.8a.22.22,0,0,0,.17.07h.05L13.06,17a.24.24,0,0,0,.2-.28.26.26,0,0,0-.29-.19l-1.6.31L.7,6.08a.7.7,0,0,1,0-1l3.12-3a.75.75,0,0,1,1,0L15.52,12.8l-.32,1.54a.24.24,0,0,0,.19.28.25.25,0,0,0,.29-.19L16,12.77A.24.24,0,0,0,16,12.56Z"/><path class="cls-1" d="M12.67,12.73,4.34,4.25A1.05,1.05,0,0,0,3,4.25.93.93,0,0,0,3,5.58l8.33,8.47a1,1,0,0,0,.7.28,1,1,0,0,0,.69-.28.9.9,0,0,0,0-1.32Zm-.35,1a.52.52,0,0,1-.68,0L3.3,5.25a.47.47,0,0,1-.14-.33.48.48,0,0,1,.14-.34.49.49,0,0,1,.35-.13A.47.47,0,0,1,4,4.58l8.33,8.48a.41.41,0,0,1,.15.33A.44.44,0,0,1,12.32,13.72Z"/><path class="cls-1" d="M10.94,14.39,2.61,5.91a1.05,1.05,0,0,0-1.39,0,.25.25,0,0,0,0,.34.26.26,0,0,0,.35,0,.52.52,0,0,1,.69,0l8.33,8.48a.48.48,0,0,1,.15.33.45.45,0,0,1-.15.33.25.25,0,0,0,0,.34.29.29,0,0,0,.18.07.28.28,0,0,0,.17-.07,1,1,0,0,0,.28-.67A.91.91,0,0,0,10.94,14.39Z"/><path class="cls-1" d="M14.4,12.06a.26.26,0,0,0-.35,0,.5.5,0,0,1-.68,0L5,3.59a.48.48,0,0,1-.14-.34A.47.47,0,0,1,5,2.92a.22.22,0,0,0,0-.33.25.25,0,0,0-.34,0,.89.89,0,0,0-.29.66.91.91,0,0,0,.28.66L13,12.39a1,1,0,0,0,1.38,0A.22.22,0,0,0,14.4,12.06Z"/><path class="cls-1" d="M18.38,14.89,17,13.56a.24.24,0,0,0-.18-.07.23.23,0,0,0-.17.07l-4.5,4.32a.22.22,0,0,0,0,.33l1.38,1.33a.24.24,0,0,0,.18.07.22.22,0,0,0,.17-.07l4.5-4.32A.22.22,0,0,0,18.38,14.89ZM13.71,19l-1-1,4.15-4,1,1Z"/><path class="cls-1" d="M25.65,24.72l-8.31-7.51a.25.25,0,0,0-.35,0,.23.23,0,0,0,0,.33l8.32,7.52a.23.23,0,0,0,.16.06.24.24,0,0,0,.18-.07A.24.24,0,0,0,25.65,24.72Z"/><path class="cls-1" d="M24.61,25.72,16.3,18.21a.25.25,0,0,0-.35,0,.23.23,0,0,0,0,.33l8.32,7.52a.23.23,0,0,0,.16.06.24.24,0,0,0,.18-.07A.23.23,0,0,0,24.61,25.72Z"/><path class="cls-1" d="M29.85,28.77l-2.08-3.33a.24.24,0,0,0-.33-.08.23.23,0,0,0-.09.32L29.43,29a.25.25,0,0,0,.21.11.24.24,0,0,0,.12,0A.23.23,0,0,0,29.85,28.77Z"/><path class="cls-1" d="M27.64,25.34l-2.08-.67a.25.25,0,0,0-.31.15.24.24,0,0,0,.16.3l2.07.67h.08a.24.24,0,0,0,.23-.16A.22.22,0,0,0,27.64,25.34Z"/><path class="cls-1" d="M29.81,28.72a.25.25,0,0,0-.34,0l-1,1a.24.24,0,0,0,.34.33l1-1A.22.22,0,0,0,29.81,28.72Z"/><path class="cls-1" d="M28.73,29.68l-3.47-2a.24.24,0,0,0-.33.08.23.23,0,0,0,.08.32l3.46,2a.31.31,0,0,0,.13,0,.26.26,0,0,0,.21-.11A.24.24,0,0,0,28.73,29.68Z"/><path class="cls-1" d="M25.37,27.82l-.69-2a.25.25,0,0,0-.31-.15.24.24,0,0,0-.16.3l.69,2a.26.26,0,0,0,.24.17l.07,0A.23.23,0,0,0,25.37,27.82Z"/></g></g></svg>